<?xml version="1.0" encoding="UTF-8" standalone="no"?>
<!-- Created with Inkscape (http://www.inkscape.org/) -->

<svg
   xmlns:dc="http://purl.org/dc/elements/1.1/"
   xmlns:cc="http://creativecommons.org/ns#"
   xmlns:rdf="http://www.w3.org/1999/02/22-rdf-syntax-ns#"
   xmlns:svg="http://www.w3.org/2000/svg"
   xmlns="http://www.w3.org/2000/svg"
   xmlns:sodipodi="http://sodipodi.sourceforge.net/DTD/sodipodi-0.dtd"
   xmlns:inkscape="http://www.inkscape.org/namespaces/inkscape"
   width="60"
   height="60"
   viewBox="0 0 60 60"
   version="1.1"
   id="svg4154"
   inkscape:version="0.92.3 (2405546, 2018-03-11)"
   sodipodi:docname="btnJogMoinsX.svg">
  <defs
     id="defs4148" />
  <sodipodi:namedview
     id="base"
     pagecolor="#ffffff"
     bordercolor="#666666"
     borderopacity="1.0"
     inkscape:pageopacity="0.0"
     inkscape:pageshadow="2"
     inkscape:zoom="8"
     inkscape:cx="29.472958"
     inkscape:cy="29.053342"
     inkscape:document-units="px"
     inkscape:current-layer="layer1"
     showgrid="true"
     units="px"
     inkscape:window-width="1366"
     inkscape:window-height="708"
     inkscape:window-x="0"
     inkscape:window-y="0"
     inkscape:window-maximized="1">
    <inkscape:grid
       type="xygrid"
       id="grid4699" />
  </sodipodi:namedview>
  <metadata
     id="metadata4151">
    <rdf:RDF>
      <cc:Work
         rdf:about="">
        <dc:format>image/svg+xml</dc:format>
        <dc:type
           rdf:resource="http://purl.org/dc/dcmitype/StillImage" />
        <dc:title />
      </cc:Work>
    </rdf:RDF>
  </metadata>
  <g
     inkscape:label="Calque 1"
     inkscape:groupmode="layer"
     id="layer1"
     transform="translate(0,-281.12499)">
    <text
       xml:space="preserve"
       style="font-style:normal;font-variant:normal;font-weight:600;font-stretch:normal;font-size:13.33333302px;line-height:1.25;font-family:FreeSans;-inkscape-font-specification:'FreeSans Semi-Bold';letter-spacing:0px;word-spacing:0px;fill:#000000;fill-opacity:1;stroke:none"
       x="4.7874298"
       y="336.03659"
       id="text5858"><tspan
         sodipodi:role="line"
         id="tspan5856"
         x="4.7874298"
         y="336.03659"
         style="font-style:normal;font-variant:normal;font-weight:600;font-stretch:normal;font-family:FreeSans;-inkscape-font-specification:'FreeSans Semi-Bold';font-size:16px">-X</tspan></text>
    <path
       style="fill:none;stroke:#000000;stroke-width:1px;stroke-linecap:round;stroke-linejoin:round;stroke-opacity:1"
       d="m 3.999999,282.125 22.820509,0.47372 -2.5,4.33012 34.641016,20 -6,10.39231 -34.641016,-20 -2.5,4.33013 z"
       id="path5835"
       inkscape:connector-curvature="0"
       sodipodi:nodetypes="cccccccc" />
    <path
       style="fill:#802020;fill-opacity:1;stroke:none;stroke-width:2;stroke-linecap:round;stroke-linejoin:round;stroke-miterlimit:4;stroke-dasharray:none;stroke-opacity:1"
       d="m 18.033453,282.96222 c 4.224263,0.0948 7.702277,0.19423 7.728922,0.22087 0.02664,0.0267 -0.410382,0.83818 -0.971169,1.8034 -0.65022,1.11916 -1.004871,1.85806 -0.978921,2.03956 0.03353,0.23452 3.02213,2.00469 16.978192,10.05634 9.315625,5.37445 17.036035,9.84738 17.156466,9.93985 0.201525,0.15473 0.0091,0.53155 -2.415342,4.73062 -1.44887,2.50938 -2.679243,4.60872 -2.734162,4.6652 -0.05492,0.0565 -7.771141,-4.32716 -17.147158,-9.74142 -9.376016,-5.41426 -17.166385,-9.86717 -17.311929,-9.89534 -0.319155,-0.0618 -0.444744,0.10753 -1.621182,2.18553 -0.651544,1.15086 -0.898213,1.4892 -1.002448,1.375 -0.07604,-0.0833 -2.432691,-3.94834 -5.237001,-8.58897 -2.80431,-4.64062 -5.181376,-8.56406 -5.282371,-8.71875 l -0.183625,-0.28125 2.670626,0.0185 c 1.468845,0.0102 6.126841,0.0961 10.351102,0.1909 z"
       id="path5862"
       inkscape:connector-curvature="0" />
  </g>
</svg>
