<?xml version="1.0" encoding="UTF-8" standalone="no"?>
<!-- Created with Inkscape (http://www.inkscape.org/) -->

<svg
   xmlns:dc="http://purl.org/dc/elements/1.1/"
   xmlns:cc="http://creativecommons.org/ns#"
   xmlns:rdf="http://www.w3.org/1999/02/22-rdf-syntax-ns#"
   xmlns:svg="http://www.w3.org/2000/svg"
   xmlns="http://www.w3.org/2000/svg"
   xmlns:sodipodi="http://sodipodi.sourceforge.net/DTD/sodipodi-0.dtd"
   xmlns:inkscape="http://www.inkscape.org/namespaces/inkscape"
   width="30"
   height="60"
   viewBox="0 0 30 60"
   version="1.1"
   id="svg4154"
   inkscape:version="0.92.3 (2405546, 2018-03-11)"
   sodipodi:docname="btnJogPlusA.svg">
  <defs
     id="defs4148" />
  <sodipodi:namedview
     id="base"
     pagecolor="#ffffff"
     bordercolor="#666666"
     borderopacity="1.0"
     inkscape:pageopacity="0.0"
     inkscape:pageshadow="2"
     inkscape:zoom="8"
     inkscape:cx="7.508799"
     inkscape:cy="30.056653"
     inkscape:document-units="px"
     inkscape:current-layer="layer1"
     showgrid="true"
     units="px"
     inkscape:window-width="1366"
     inkscape:window-height="708"
     inkscape:window-x="0"
     inkscape:window-y="0"
     inkscape:window-maximized="1">
    <inkscape:grid
       type="xygrid"
       id="grid4699" />
  </sodipodi:namedview>
  <metadata
     id="metadata4151">
    <rdf:RDF>
      <cc:Work
         rdf:about="">
        <dc:format>image/svg+xml</dc:format>
        <dc:type
           rdf:resource="http://purl.org/dc/dcmitype/StillImage" />
        <dc:title />
      </cc:Work>
    </rdf:RDF>
  </metadata>
  <g
     inkscape:label="Calque 1"
     inkscape:groupmode="layer"
     id="layer1"
     transform="translate(0,-281.12499)">
    <text
       xml:space="preserve"
       style="font-style:normal;font-weight:normal;font-size:13.33333302px;line-height:1.25;font-family:sans-serif;letter-spacing:0px;word-spacing:0px;fill:#000000;fill-opacity:1;stroke:none"
       x="8.0426321"
       y="336.11111"
       id="text5858"><tspan
         sodipodi:role="line"
         id="tspan5856"
         x="8.0426321"
         y="336.11111"
         style="font-style:normal;font-variant:normal;font-weight:600;font-stretch:normal;font-family:FreeSans;-inkscape-font-specification:'FreeSans Semi-Bold'">+A</tspan></text>
    <path
       style="fill:none;stroke:#000000;stroke-width:1px;stroke-linecap:round;stroke-linejoin:round;stroke-opacity:1"
       d="m 13,327.12499 -13,-12 5,-1 c -7.3698637,-15.49142 4.9998241,-29.94678 17,-32 l 6,4 c -13.482138,2.87398 -20.5077919,14.46887 -14,27 l 5,-1 z"
       id="path5835"
       inkscape:connector-curvature="0"
       sodipodi:nodetypes="cccccccc" />
    <path
       style="fill:#208080;fill-opacity:1;stroke:none;stroke-width:2;stroke-linecap:round;stroke-linejoin:round;stroke-miterlimit:4;stroke-dasharray:none;stroke-opacity:1"
       d="M 7.0112136,39.703432 C 3.8685404,36.80298 1.3420455,34.38953 1.3967806,34.340209 1.4515156,34.290888 2.335406,34.08923 3.3609813,33.892079 4.3865566,33.694929 5.3054794,33.453809 5.4030319,33.356257 5.6258019,33.133487 5.5810328,32.944559 4.943797,31.418268 3.3274543,27.546843 2.9401663,23.322553 3.826346,19.229825 5.6031266,11.023952 12.622919,3.9056131 21.041271,1.7732285 l 0.794973,-0.201368 2.385896,1.5900089 2.385895,1.5900087 -1.118367,0.3392754 C 19.135626,7.018756 14.289803,11.124669 12.196134,16.354892 c -1.513441,3.780746 -1.558441,8.343811 -0.123575,12.53069 0.509332,1.486208 1.467086,3.548667 1.687124,3.633103 0.09472,0.03635 1.100768,-0.121073 2.235666,-0.349826 1.134897,-0.228751 2.06345,-0.395622 2.06345,-0.370825 0,0.105768 -5.169402,12.99193 -5.247515,13.08088 -0.04737,0.05394 -2.657397,-2.27503 -5.8000704,-5.175482 z"
       id="path820"
       inkscape:connector-curvature="0"
       transform="translate(0,281.12499)" />
  </g>
</svg>
