<?xml version="1.0" encoding="UTF-8" standalone="no"?>
<!-- Created with Inkscape (http://www.inkscape.org/) -->

<svg
   xmlns:dc="http://purl.org/dc/elements/1.1/"
   xmlns:cc="http://creativecommons.org/ns#"
   xmlns:rdf="http://www.w3.org/1999/02/22-rdf-syntax-ns#"
   xmlns:svg="http://www.w3.org/2000/svg"
   xmlns="http://www.w3.org/2000/svg"
   xmlns:sodipodi="http://sodipodi.sourceforge.net/DTD/sodipodi-0.dtd"
   xmlns:inkscape="http://www.inkscape.org/namespaces/inkscape"
   width="30"
   height="60"
   viewBox="0 0 30 60"
   version="1.1"
   id="svg4154"
   inkscape:version="0.92.2 (5c3e80d, 2017-08-06)"
   sodipodi:docname="btnJogPlusB.svg">
  <defs
     id="defs4148" />
  <sodipodi:namedview
     id="base"
     pagecolor="#ffffff"
     bordercolor="#666666"
     borderopacity="1.0"
     inkscape:pageopacity="0.0"
     inkscape:pageshadow="2"
     inkscape:zoom="8"
     inkscape:cx="8.0532696"
     inkscape:cy="29.378439"
     inkscape:document-units="px"
     inkscape:current-layer="layer1"
     showgrid="true"
     units="px"
     inkscape:window-width="1366"
     inkscape:window-height="708"
     inkscape:window-x="0"
     inkscape:window-y="0"
     inkscape:window-maximized="1">
    <inkscape:grid
       type="xygrid"
       id="grid4699" />
  </sodipodi:namedview>
  <metadata
     id="metadata4151">
    <rdf:RDF>
      <cc:Work
         rdf:about="">
        <dc:format>image/svg+xml</dc:format>
        <dc:type
           rdf:resource="http://purl.org/dc/dcmitype/StillImage" />
        <dc:title></dc:title>
      </cc:Work>
    </rdf:RDF>
  </metadata>
  <g
     inkscape:label="Calque 1"
     inkscape:groupmode="layer"
     id="layer1"
     transform="translate(0,-281.12499)">
    <text
       xml:space="preserve"
       style="font-style:normal;font-weight:normal;font-size:13.33333302px;line-height:1.25;font-family:sans-serif;letter-spacing:0px;word-spacing:0px;fill:#000000;fill-opacity:1;stroke:none"
       x="8.2420645"
       y="295.95044"
       id="text5858"><tspan
         sodipodi:role="line"
         id="tspan5856"
         x="8.2420645"
         y="295.95044"
         style="font-style:normal;font-variant:normal;font-weight:600;font-stretch:normal;font-family:FreeSans;-inkscape-font-specification:'FreeSans Semi-Bold'">+B</tspan></text>
    <g
       id="g843"
       transform="matrix(-0.76604444,0.54805763,0.64278761,0.65314965,-170.38785,104.73042)"
       style="stroke-width:1.08298051">
      <path
         sodipodi:nodetypes="cccccccc"
         inkscape:connector-curvature="0"
         id="path5835"
         d="m 30.337555,329.91778 -18.834724,-5.6241 3.757211,-2.7539 C -0.8127757,310.74349 1.0423872,293.43915 10.275187,287.13337 l 7.737625,1.24862 c -10.0207896,7.58117 -8.972761,20.37326 4.506968,28.90128 l 3.75722,-2.75392 z"
         style="fill:none;stroke:#000000;stroke-width:1.08298051px;stroke-linecap:round;stroke-linejoin:round;stroke-opacity:1" />
      <path
         inkscape:connector-curvature="0"
         id="path820"
         d="m 21.183671,326.65403 c -4.552883,-1.3592 -8.26382,-2.52341 -8.246523,-2.58714 0.01735,-0.0638 0.666041,-0.57238 1.441655,-1.13027 0.775606,-0.5579 1.430525,-1.11422 1.455367,-1.23629 0.05679,-0.27874 -0.09978,-0.42736 -1.605529,-1.52445 -3.81931,-2.78277 -6.7815328,-6.33622 -8.5469739,-10.25284 -3.5396869,-7.8528 -1.8131123,-16.72287 4.2341681,-21.75246 l 0.5710608,-0.47495 3.076492,0.49603 3.076508,0.49595 -0.7686,0.7172 c -4.366858,4.0748 -6.0604302,9.49042 -4.645971,14.85669 1.022462,3.87907 3.816523,7.89156 7.672816,11.01872 1.368849,1.11004 3.488205,2.5562 3.733309,2.54748 0.105507,-0.004 0.888685,-0.5195 1.74039,-1.14616 0.851702,-0.62662 1.561158,-1.12156 1.576534,-1.09986 0.06571,0.0926 3.540938,13.31807 3.527774,13.42531 -0.0079,0.065 -3.739605,-0.99384 -8.292498,-2.353 z"
         style="fill:#9b0d7d;fill-opacity:1;stroke:none;stroke-width:2.16596103;stroke-linecap:round;stroke-linejoin:round;stroke-miterlimit:4;stroke-dasharray:none;stroke-opacity:1" />
    </g>
  </g>
</svg>
