<?xml version="1.0" encoding="UTF-8" standalone="no"?>
<!-- Created with Inkscape (http://www.inkscape.org/) -->

<svg
   xmlns:dc="http://purl.org/dc/elements/1.1/"
   xmlns:cc="http://creativecommons.org/ns#"
   xmlns:rdf="http://www.w3.org/1999/02/22-rdf-syntax-ns#"
   xmlns:svg="http://www.w3.org/2000/svg"
   xmlns="http://www.w3.org/2000/svg"
   xmlns:sodipodi="http://sodipodi.sourceforge.net/DTD/sodipodi-0.dtd"
   xmlns:inkscape="http://www.inkscape.org/namespaces/inkscape"
   width="30"
   height="60"
   viewBox="0 0 30 60"
   version="1.1"
   id="svg4154"
   inkscape:version="0.92.3 (2405546, 2018-03-11)"
   sodipodi:docname="btnJogPlusB.svg">
  <defs
     id="defs4148" />
  <sodipodi:namedview
     id="base"
     pagecolor="#ffffff"
     bordercolor="#666666"
     borderopacity="1.0"
     inkscape:pageopacity="0.0"
     inkscape:pageshadow="2"
     inkscape:zoom="8"
     inkscape:cx="15.144391"
     inkscape:cy="29.378439"
     inkscape:document-units="px"
     inkscape:current-layer="layer1"
     showgrid="true"
     units="px"
     inkscape:window-width="1366"
     inkscape:window-height="708"
     inkscape:window-x="0"
     inkscape:window-y="0"
     inkscape:window-maximized="1">
    <inkscape:grid
       type="xygrid"
       id="grid4699" />
  </sodipodi:namedview>
  <metadata
     id="metadata4151">
    <rdf:RDF>
      <cc:Work
         rdf:about="">
        <dc:format>image/svg+xml</dc:format>
        <dc:type
           rdf:resource="http://purl.org/dc/dcmitype/StillImage" />
        <dc:title />
      </cc:Work>
    </rdf:RDF>
  </metadata>
  <g
     inkscape:label="Calque 1"
     inkscape:groupmode="layer"
     id="layer1"
     transform="translate(0,-281.12499)">
    <text
       xml:space="preserve"
       style="font-style:normal;font-weight:normal;font-size:13.33333302px;line-height:1.25;font-family:sans-serif;letter-spacing:0px;word-spacing:0px;fill:#000000;fill-opacity:1;stroke:none"
       x="8.2420645"
       y="295.95044"
       id="text5858"><tspan
         sodipodi:role="line"
         id="tspan5856"
         x="8.2420645"
         y="295.95044"
         style="font-style:normal;font-variant:normal;font-weight:600;font-stretch:normal;font-family:FreeSans;-inkscape-font-specification:'FreeSans Semi-Bold'">+B</tspan></text>
    <path
       style="fill:none;stroke:#000000;stroke-width:1px;stroke-linecap:round;stroke-linejoin:round;stroke-opacity:1"
       d="M 18.439296,336.84283 29.25243,322.84694 24.604066,323.1074 C 29.976838,307.24697 17.432685,296.96139 6.3066728,297.90287 l -5.1247672,5.0562 c 12.5494524,-0.54033 19.9692124,8.3892 15.1248474,21.34694 l -4.648384,0.26046 z"
       id="path5835"
       inkscape:connector-curvature="0"
       sodipodi:nodetypes="cccccccc" />
    <path
       style="fill:#802080;fill-opacity:1;stroke:none;stroke-width:2;stroke-linecap:round;stroke-linejoin:round;stroke-miterlimit:4;stroke-dasharray:none;stroke-opacity:1"
       d="m 23.35368,329.69426 c 2.614034,-3.38301 4.708437,-6.17722 4.654221,-6.20936 -0.0543,-0.0322 -0.878135,-0.009 -1.830895,0.0519 -0.95276,0.0607 -1.812052,0.0563 -1.909548,-0.01 -0.222674,-0.15094 -0.198265,-0.33382 0.250009,-1.87562 1.137031,-3.91077 1.122112,-7.85517 -0.04304,-11.38087 -2.336125,-7.06901 -9.360329,-11.91623 -17.225773,-11.88705 l -0.74275,0.003 -2.0378876,2.01008 -2.0379513,2.01003 1.049789,0.0472 c 5.9644382,0.26816 10.7428829,2.87719 13.1087169,7.15738 1.710166,3.09398 2.14897,7.24604 1.204978,11.40202 -0.335079,1.47523 -1.029026,3.58131 -1.222392,3.70995 -0.08339,0.0552 -1.0147,0.14774 -2.069953,0.20522 -1.055225,0.0575 -1.916842,0.12306 -1.914672,0.14566 0.0092,0.0965 5.848175,10.63933 5.927191,10.70216 0.04783,0.0381 2.225876,-2.69865 4.839943,-6.08163 z"
       id="path820"
       inkscape:connector-curvature="0" />
  </g>
</svg>
