<?xml version="1.0" encoding="UTF-8" standalone="no"?>
<!-- Created with Inkscape (http://www.inkscape.org/) -->

<svg
   xmlns:dc="http://purl.org/dc/elements/1.1/"
   xmlns:cc="http://creativecommons.org/ns#"
   xmlns:rdf="http://www.w3.org/1999/02/22-rdf-syntax-ns#"
   xmlns:svg="http://www.w3.org/2000/svg"
   xmlns="http://www.w3.org/2000/svg"
   xmlns:sodipodi="http://sodipodi.sourceforge.net/DTD/sodipodi-0.dtd"
   xmlns:inkscape="http://www.inkscape.org/namespaces/inkscape"
   width="60"
   height="60"
   id="svg2"
   sodipodi:version="0.32"
   inkscape:version="0.92.2 (5c3e80d, 2017-08-06)"
   version="1.0"
   sodipodi:docname="btnStopJog.svg"
   inkscape:output_extension="org.inkscape.output.svg.inkscape">
  <defs
     id="defs4">
    <inkscape:perspective
       sodipodi:type="inkscape:persp3d"
       inkscape:vp_x="0 : 300.5 : 1"
       inkscape:vp_y="0 : 1000 : 0"
       inkscape:vp_z="601 : 300.5 : 1"
       inkscape:persp3d-origin="300.5 : 200.33333 : 1"
       id="perspective3380" />
    <inkscape:perspective
       id="perspective3990"
       inkscape:persp3d-origin="375 : 250 : 1"
       inkscape:vp_z="750 : 375 : 1"
       inkscape:vp_y="0 : 1000 : 0"
       inkscape:vp_x="0 : 375 : 1"
       sodipodi:type="inkscape:persp3d" />
  </defs>
  <sodipodi:namedview
     id="base"
     pagecolor="#ffffff"
     bordercolor="#666666"
     borderopacity="1.0"
     gridtolerance="10000"
     guidetolerance="10"
     objecttolerance="10"
     inkscape:pageopacity="0.0"
     inkscape:pageshadow="2"
     inkscape:zoom="9.9605738"
     inkscape:cx="30.0762"
     inkscape:cy="25.441283"
     inkscape:document-units="px"
     inkscape:current-layer="layer1"
     width="601px"
     height="601px"
     inkscape:window-width="1920"
     inkscape:window-height="1017"
     inkscape:window-x="-8"
     inkscape:window-y="-8"
     showgrid="false"
     fit-margin-top="0.2"
     fit-margin-left="0"
     fit-margin-right="0"
     fit-margin-bottom="0"
     inkscape:window-maximized="1"
     showguides="true"
     inkscape:guide-bbox="true" />
  <metadata
     id="metadata7">
    <rdf:RDF>
      <cc:Work
         rdf:about="">
        <dc:format>image/svg+xml</dc:format>
        <dc:type
           rdf:resource="http://purl.org/dc/dcmitype/StillImage" />
        <dc:title></dc:title>
      </cc:Work>
    </rdf:RDF>
  </metadata>
  <g
     inkscape:label="Layer 1"
     inkscape:groupmode="layer"
     id="layer1"
     transform="translate(1515.529,2290.6748)">
    <rect
       style="color:#000000;display:inline;overflow:visible;visibility:visible;fill:#000000;fill-opacity:1;fill-rule:nonzero;stroke:none;stroke-width:0.8735441;marker:none"
       id="rect3653"
       width="0"
       height="27.202072"
       x="578.73834"
       y="298.1684"
       rx="249.48199"
       ry="27.202072" />
    <g
       id="g832"
       transform="matrix(0.05940594,0,0,0.05940593,-1425.5095,-2098.1476)"
       style="stroke-width:16.83333588">
      <path
         style="fill:#000000;fill-opacity:1;stroke:none;stroke-width:16.83333588"
         d="m -1219.5067,-2230.8749 -295.8223,-295.8221 10e-5,-418.3556 295.822,-295.8224 418.35567,3e-4 295.82223,295.8221 -2e-4,418.3558 -295.82203,295.822 z"
         id="path3940"
         inkscape:connector-curvature="0" />
      <path
         style="fill:#ffffff;fill-opacity:1;stroke:none;stroke-width:16.83333588"
         d="m -1217.4357,-2235.875 -292.8933,-292.8932 10e-5,-414.2135 292.8931,-292.8935 414.21349,3e-4 292.8933,292.8932 -2e-4,414.2136 -292.8931,292.8932 z"
         id="path3942"
         inkscape:connector-curvature="0" />
      <path
         inkscape:connector-curvature="0"
         id="path3944"
         d="m -1206.2106,-2262.975 -277.0184,-277.0183 10e-5,-391.7632 277.0183,-277.0186 391.7631,4e-4 277.0185,277.0182 -2e-4,391.7633 -277.0183,277.0183 z"
         style="fill:#c4121e;fill-opacity:0.98823529;stroke:none;stroke-width:16.83333588" />
      <path
         d="m -1440.253,-2654.5564 v -0.3746 c 0,-1.3712 1.4322,-2.3068 4.3052,-2.8069 22.0852,-7.1119 36.4311,-12.2273 43.0466,-15.3477 3.3713,4.6171 7.7985,8.7968 13.2884,12.5393 8.8577,5.2407 18.341,8.4221 28.4481,9.5459 10.7289,0.2543 17.4053,0 20.0257,-0.7492 12.3528,-3.4916 19.9614,-7.0476 22.8309,-10.6679 2.8678,-2.495 5.3628,-8.5443 7.4884,-18.1547 0.4948,-3.7425 0,-7.9221 -1.4966,-12.5392 -1.8713,-3.1169 -3.8697,-5.7374 -5.99,-7.8612 l -6.3611,-4.8662 -7.1121,-3.1815 c -39.555,-12.3527 -61.3266,-19.5867 -65.3181,-21.7105 -18.341,-7.3611 -32.0041,-19.5258 -40.9872,-36.4956 -5.8646,-11.3528 -8.485,-25.1412 -7.8613,-41.3619 2.3678,-20.2139 10.668,-36.2447 24.8921,-48.0992 15.9697,-11.6036 32.6277,-17.9019 49.9721,-18.9038 h 4.8663 c 12.3544,0 22.5817,0.9356 30.6938,2.8069 16.4698,4.617 29.3191,11.0425 38.5549,19.2766 9.2324,7.612 16.8444,17.9681 22.8327,31.0684 l -0.5611,2.0594 -38.5549,18.5292 -1.8712,-0.9357 c -2.3695,-7.6085 -9.046,-13.7849 -20.0258,-18.5291 -12.3529,-4.6119 -26.826,-4.7408 -43.4213,-0.3746 -7.112,2.3712 -12.1018,5.4272 -14.9731,9.1713 -1.0001,1.0001 -2.3103,4.117 -3.9306,9.3578 -0.2544,6.1155 0,9.6715 0.7491,10.6681 1.6204,4.2442 4.8663,8.0475 9.7325,11.4171 l 4.8661,2.0594 c 35.4346,10.4816 59.452,18.0936 72.0557,22.8326 10.8526,4.9917 19.1512,10.4817 24.892,16.4699 l 10.4815,14.224 c 7.7341,12.8528 11.8528,26.8904 12.3529,42.111 0.1219,1 0.1864,2.1848 0.1864,3.556 0,4.8662 -0.7492,11.4172 -2.2458,19.6513 -3.1204,11.6035 -6.8629,20.1512 -11.2291,25.6411 -7.4866,9.2358 -12.9137,14.785 -16.2833,16.6597 -18.341,12.6019 -37.2449,19.4003 -56.7096,20.4004 h -17.0308 c -12.7275,-1.2475 -23.4599,-3.7424 -32.1922,-7.4883 -13.9748,-6.4865 -25.2666,-13.724 -33.8753,-21.7106 -7.1137,-6.4866 -13.2901,-15.7833 -18.5309,-27.887 z"
         style="fill:#ffffff;stroke:none;stroke-width:16.83333588"
         inkscape:connector-curvature="0"
         id="path10" />
      <path
         d="m -1047.3305,-2873.159 v 52.779 h -54.8384 v 221.784 h -50.9078 v -222.345 h -58.5808 v -52.218 z"
         style="fill:#ffffff;stroke:none;stroke-width:16.83333588"
         inkscape:connector-curvature="0"
         id="path12" />
      <path
         d="m -893.9729,-2876.3404 c 30.19208,4.617 52.5247,22.4597 67.00304,53.5282 12.35275,22.9598 18.52923,51.1586 18.52923,84.5966 v 3.3695 c 0,41.8009 -10.17146,77.3609 -30.50748,106.68 -14.47835,19.7141 -34.93977,30.7531 -61.38756,33.1296 -2.74589,0.2491 -5.42728,0.3746 -8.04767,0.3746 -27.45139,0 -50.4722,-11.6037 -69.06243,-34.8109 -19.21563,-30.9429 -28.94803,-62.6977 -29.19723,-95.2646 -0.1254,-2.7423 -0.1864,-5.4882 -0.1864,-8.2375 0,-44.0432 9.7934,-80.4778 29.38363,-109.3004 13.10205,-15.7207 26.76149,-25.7631 40.98554,-30.1328 9.85436,-3.117 19.71222,-4.6798 29.57358,-4.6798 4.36609,0 8.67127,0.2509 12.91375,0.7475 z m -14.41044,233.7622 c 14.47314,-0.7492 26.69879,-10.668 36.68386,-29.7582 7.23397,-12.7273 11.79345,-31.443 13.66464,-56.1486 0.3746,-31.443 -5.18148,-57.2062 -16.65963,-77.2965 -9.35787,-13.973 -19.71403,-21.7715 -31.06848,-23.3953 -14.97314,0.7491 -27.45139,10.5461 -37.42946,29.3836 -7.11207,13.2274 -11.72905,32.1922 -13.84944,56.896 -0.2544,31.4431 5.42718,57.1487 17.02913,77.1101 9.23057,13.9765 19.77312,21.7105 31.62938,23.2089 z"
         style="fill:#ffffff;stroke:none;stroke-width:16.83333588"
         inkscape:connector-curvature="0"
         id="path14" />
      <path
         d="m -659.38651,-2873.3472 c 15.96974,1.7493 30.09968,7.4866 42.39153,17.219 12.28826,9.7324 21.11642,20.714 26.4827,32.9396 6.73737,13.1019 10.10696,27.1378 10.10696,42.111 0,6.9901 -0.064,11.5427 -0.1847,13.663 -1.00009,17.219 -4.55608,31.5684 -10.66796,43.0466 -6.11717,11.4817 -12.79365,20.2784 -20.02582,26.3886 -15.72064,14.3477 -32.25837,21.6496 -49.59941,21.8953 h -52.02799 v 76.9201 h -51.2842 v -274.1832 z m -52.779,142.6164 h 42.29744 c 6.48647,-0.7492 11.85275,-2.3678 16.09344,-4.8663 11.47815,-6.861 18.34103,-18.7765 20.58682,-35.7481 0.3746,-15.3478 -2.74579,-27.0124 -9.35777,-34.999 -6.61547,-7.9831 -15.41224,-12.5392 -26.38869,-13.663 h -43.23304 v 89.2764 0 z"
         style="fill:#ffffff;stroke:none;stroke-width:16.83333588"
         inkscape:connector-curvature="0"
         id="path16" />
    </g>
  </g>
</svg>
