<?xml version="1.0" encoding="UTF-8" standalone="no"?>
<svg
   xmlns:dc="http://purl.org/dc/elements/1.1/"
   xmlns:cc="http://creativecommons.org/ns#"
   xmlns:rdf="http://www.w3.org/1999/02/22-rdf-syntax-ns#"
   xmlns:svg="http://www.w3.org/2000/svg"
   xmlns="http://www.w3.org/2000/svg"
   xmlns:sodipodi="http://sodipodi.sourceforge.net/DTD/sodipodi-0.dtd"
   xmlns:inkscape="http://www.inkscape.org/namespaces/inkscape"
   width="48"
   height="17"
   viewBox="0 0 48 17"
   version="1.1"
   id="svg4154"
   inkscape:version="1.0.2 (e86c870879, 2021-01-15)"
   sodipodi:docname="btnLinkOff.svg">
  <defs
     id="defs4148" />
  <sodipodi:namedview
     id="base"
     pagecolor="#ffffff"
     bordercolor="#666666"
     borderopacity="1.0"
     inkscape:pageopacity="0.0"
     inkscape:pageshadow="2"
     inkscape:zoom="14.224316"
     inkscape:cx="22.908939"
     inkscape:cy="9.3361479"
     inkscape:document-units="px"
     inkscape:current-layer="layer1"
     showgrid="true"
     units="px"
     inkscape:window-width="1920"
     inkscape:window-height="1023"
     inkscape:window-x="0"
     inkscape:window-y="0"
     inkscape:window-maximized="1"
     inkscape:document-rotation="0">
    <inkscape:grid
       type="xygrid"
       id="grid4699" />
  </sodipodi:namedview>
  <metadata
     id="metadata4151">
    <rdf:RDF>
      <cc:Work
         rdf:about="">
        <dc:format>image/svg+xml</dc:format>
        <dc:type
           rdf:resource="http://purl.org/dc/dcmitype/StillImage" />
        <dc:title />
      </cc:Work>
    </rdf:RDF>
  </metadata>
  <g
     inkscape:label="Calque 1"
     inkscape:groupmode="layer"
     id="layer1"
     transform="translate(0,-324.12499)">
    <rect
       style="fill:#3f3f60;fill-opacity:1;stroke-linecap:round;stroke-linejoin:round;stroke-miterlimit:1"
       id="rect832"
       width="48"
       height="17"
       x="0"
       y="324.125"
       rx="4"
       ry="4" />
    <path
       style="fill:#fffffe;stroke-width:1.00001;fill-opacity:1"
       d="m 11.413094,325.12639 c -1.9281942,-0.004 -3.4574415,0.0227 -3.8688746,0.0672 -1.5340951,0.16578 -2.8854274,0.64067 -4.084124,1.43363 -1.3677409,0.90476 -2.3141801,2.34151 -2.4313826,3.69434 -0.0361471,0.41753 -0.0390195,3.87059 -0.00374,4.49559 0.059375,1.052 0.5460991,2.04684 1.4711831,3.01372 0.7048009,0.73665 1.9721468,1.47833 3.1426417,1.83856 1.313736,0.40437 2.0381129,0.46284 5.7742994,0.4549 2.539809,-0.005 3.321218,-0.0272 3.842671,-0.10856 1.684329,-0.26304 3.015769,-0.82708 4.183325,-1.77308 0.526577,-0.42664 0.700304,-0.60885 1.119297,-1.16827 0.23913,-0.31927 0.657119,-1.19595 0.69067,-1.44741 l 0.02433,-0.18265 -2.627915,-0.002 -2.627915,-0.004 -0.50724,0.36357 c -0.808566,0.57671 -0.770197,0.57103 -4.130917,0.57897 -1.5575673,0.004 -3.0044063,-0.02 -3.2137674,-0.0517 -0.588948,-0.0891 -0.9678024,-0.24814 -1.3869549,-0.58585 -0.6534455,-0.52648 -0.6608526,-0.56893 -0.6607222,-3.10678 1.198e-4,-2.64011 -0.00483,-2.62025 0.7842566,-3.19636 0.7846472,-0.57283 0.7390169,-0.56762 4.2450929,-0.5738 3.550138,-0.006 3.538855,-0.007 4.363012,0.58069 l 0.50724,0.36185 2.627915,-0.002 2.627915,-0.002 -0.02433,-0.18264 c -0.03943,-0.29291 -0.439298,-1.09798 -0.767411,-1.54565 -0.860928,-1.1746 -2.384839,-2.15226 -4.061663,-2.60533 -1.12869,-0.30493 -1.632571,-0.33929 -5.006889,-0.34635 z m 25.176696,0.002 c -2.472184,0.006 -3.331958,0.0301 -3.838927,0.10684 -1.414064,0.2139 -2.564309,0.64119 -3.593729,1.33369 -0.760834,0.51181 -1.211996,0.92599 -1.639639,1.50943 -0.328111,0.44767 -0.726104,1.25101 -0.765539,1.54392 l -0.0262,0.18437 2.627915,0.002 2.627915,0.002 0.509111,-0.36185 c 0.824817,-0.58857 0.805589,-0.5869 4.398576,-0.57896 3.501472,0.008 3.429054,-0.002 4.233863,0.58757 0.764164,0.55967 0.759144,0.53929 0.759923,3.15503 7.81e-4,2.62751 0.0012,2.62368 -0.759923,3.18257 -0.423476,0.31095 -0.496253,0.34651 -0.932125,0.46179 -0.433321,0.11441 -0.716439,0.12411 -3.430888,0.12235 -3.507065,-0.002 -3.453003,0.007 -4.269426,-0.57553 l -0.509111,-0.36357 -2.627915,0.002 -2.627915,0.002 0.0262,0.18437 c 0.06875,0.51519 0.831525,1.76442 1.407544,2.30379 0.07768,0.0727 0.478454,0.36958 0.890945,0.65996 0.67648,0.4762 0.813761,0.554 1.396313,0.78918 0.80612,0.32542 1.443666,0.5018 2.291004,0.63411 0.528308,0.0825 1.296685,0.10326 3.848284,0.10855 1.920613,0.004 3.458865,-0.0213 3.868875,-0.0655 1.234505,-0.13292 2.307869,-0.45823 3.430889,-1.03731 1.677003,-0.86473 2.865323,-2.39931 3.069644,-3.9666 0.05006,-0.38397 0.0619,-4.18744 0.01498,-4.72821 -0.136903,-1.57797 -1.34507,-3.1893 -3.067773,-4.08895 -1.128727,-0.58946 -2.165341,-0.90305 -3.447734,-1.04247 -0.416068,-0.0453 -1.915163,-0.0699 -3.865131,-0.0655 z m -8.679231,5.59322 a 4.7916394,3.30837 0 0 1 0.881587,1.90404 4.7916394,3.30837 0 0 1 -0.875971,1.90403 c 4.850468,-0.007 9.135737,-0.0239 9.285673,-0.0638 0.378693,-0.10062 0.665186,-0.32487 0.802973,-0.62722 0.146302,-0.32097 0.143795,-2.22606 -0.0037,-2.48989 -0.135198,-0.24178 -0.467541,-0.4755 -0.799231,-0.56347 -0.150355,-0.0399 -4.438597,-0.057 -9.291288,-0.0638 z m -7.827593,0.004 c -4.88458,0.0108 -9.202599,0.0322 -9.334337,0.0723 -0.311294,0.0951 -0.619604,0.32227 -0.7486944,0.55312 -0.1280001,0.22889 -0.141502,2.21058 -0.016845,2.50024 0.1062914,0.24699 0.4296084,0.50088 0.7655394,0.60309 0.13211,0.0401 4.452191,0.0616 9.338082,0.0723 a 4.7916394,3.30837 0 0 1 -0.877844,-1.90059 4.7916394,3.30837 0 0 1 0.8741,-1.90059 z"
       id="path827" />
  </g>
</svg>
