<?xml version="1.0" encoding="UTF-8" standalone="no"?>
<!-- Created with Inkscape (http://www.inkscape.org/) -->

<svg
   xmlns:dc="http://purl.org/dc/elements/1.1/"
   xmlns:cc="http://creativecommons.org/ns#"
   xmlns:rdf="http://www.w3.org/1999/02/22-rdf-syntax-ns#"
   xmlns:svg="http://www.w3.org/2000/svg"
   xmlns="http://www.w3.org/2000/svg"
   xmlns:sodipodi="http://sodipodi.sourceforge.net/DTD/sodipodi-0.dtd"
   xmlns:inkscape="http://www.inkscape.org/namespaces/inkscape"
   width="48"
   height="17"
   viewBox="0 0 48 17"
   version="1.1"
   id="svg4154"
   inkscape:version="0.92.2 (5c3e80d, 2017-08-06)"
   sodipodi:docname="btnLink.svg">
  <defs
     id="defs4148" />
  <sodipodi:namedview
     id="base"
     pagecolor="#ffffff"
     bordercolor="#666666"
     borderopacity="1.0"
     inkscape:pageopacity="0.0"
     inkscape:pageshadow="2"
     inkscape:zoom="14.625"
     inkscape:cx="24"
     inkscape:cy="8.5"
     inkscape:document-units="px"
     inkscape:current-layer="layer1"
     showgrid="true"
     units="px"
     inkscape:window-width="1366"
     inkscape:window-height="708"
     inkscape:window-x="0"
     inkscape:window-y="0"
     inkscape:window-maximized="1">
    <inkscape:grid
       type="xygrid"
       id="grid4699" />
  </sodipodi:namedview>
  <metadata
     id="metadata4151">
    <rdf:RDF>
      <cc:Work
         rdf:about="">
        <dc:format>image/svg+xml</dc:format>
        <dc:type
           rdf:resource="http://purl.org/dc/dcmitype/StillImage" />
        <dc:title></dc:title>
      </cc:Work>
    </rdf:RDF>
  </metadata>
  <g
     inkscape:label="Calque 1"
     inkscape:groupmode="layer"
     id="layer1"
     transform="translate(0,-324.12499)">
    <path
       style="fill:#000000;stroke-width:1"
       d="m 1.5599273,338.52579 c -0.96531053,-1.09595 -1.47196793,-2.22461 -1.53392503,-3.41703 -0.03681,-0.70844 -0.033699,-4.62175 0.00402,-5.09501 0.1222989,-1.53341 1.10831913,-3.16176 2.53553523,-4.18731 1.2508209,-0.8988 2.6623695,-1.43671 4.2631735,-1.62463 0.429324,-0.0505 2.024639,-0.0804 4.036679,-0.0763 3.521047,0.008 4.047266,0.0471 5.225038,0.39274 1.749739,0.51354 3.339975,1.62146 4.23834,2.95287 0.34238,0.50742 0.75869,1.41862 0.799831,1.75063 l 0.02584,0.20862 -2.742005,0.002 -2.742005,0.002 -0.529877,-0.41065 c -0.859995,-0.66648 -0.848286,-0.66479 -4.552798,-0.65774 -3.658535,0.007 -3.611648,1.2e-4 -4.430415,0.64942 -0.823397,0.65301 -0.818362,0.63073 -0.818487,3.62327 -1.36e-4,2.87662 0.0092,2.92403 0.69106,3.52078 0.437379,0.3828 0.832323,0.5644 1.446881,0.66537 0.218465,0.0359 1.727001,0.0619 3.352298,0.0579 3.506858,-0.009 3.467735,-0.003 4.311461,-0.65669 l 0.529877,-0.41064 2.742005,0.002 2.742005,0.002 -0.02564,0.20878 c -0.03501,0.28502 -0.472042,1.2786 -0.72157,1.6405 -0.437213,0.63409 -0.618284,0.83922 -1.167759,1.32282 -1.218326,1.07227 -2.606666,1.71162 -4.364237,2.00978 -0.544129,0.0923 -1.359596,0.1173 -4.009847,0.12296 -3.898652,0.009 -4.655088,-0.0562 -6.0259508,-0.51455 -1.2213928,-0.40832 -2.544105,-1.24872 -3.2795536,-2.0837 z m 7.8135117,-4.5128 c -0.130077,-0.32832 -0.116766,-2.57383 0.0168,-2.83326 0.134704,-0.26167 0.455896,-0.51985 0.780726,-0.62758 0.350446,-0.11622 27.202184,-0.12853 27.604362,-0.0126 0.346113,0.0997 0.691998,0.36508 0.833074,0.63912 0.153954,0.29906 0.158264,2.45712 0.0056,2.82093 -0.143779,0.34271 -0.443419,0.59666 -0.838579,0.7107 -0.401184,0.11579 -27.25287,0.10319 -27.604239,-0.0129 -0.350538,-0.11585 -0.686854,-0.40433 -0.797768,-0.6843 z m 18.966289,4.62555 c -0.601067,-0.61137 -1.397633,-2.02658 -1.469377,-2.61055 l -0.02564,-0.20879 2.742005,-0.002 2.742005,-0.002 0.529877,0.41065 c 0.851924,0.66023 0.795323,0.65192 4.45489,0.65398 2.832485,0.002 3.129474,-0.0102 3.581638,-0.13989 0.454825,-0.13067 0.530184,-0.17127 0.972073,-0.52373 0.794245,-0.6335 0.79318,-0.62866 0.792365,-3.60694 -8.13e-4,-2.9649 0.0044,-2.94117 -0.792993,-3.57555 -0.839805,-0.66809 -0.762667,-0.65646 -4.416398,-0.66577 -3.749225,-0.009 -3.729773,-0.0124 -4.590456,0.65474 l -0.530996,0.41154 -2.742005,-0.002 -2.742005,-0.002 0.02584,-0.20863 c 0.04115,-0.332 0.457453,-1.2432 0.799832,-1.75062 0.446239,-0.66134 0.915717,-1.13132 1.709635,-1.71146 1.074184,-0.78494 2.274606,-1.26863 3.75016,-1.51108 0.529014,-0.087 1.426372,-0.11404 4.006057,-0.12109 2.034761,-0.005 3.599499,0.0234 4.03366,0.0747 1.338157,0.15803 2.419046,0.51296 3.596855,1.18111 1.797613,1.01973 3.059981,2.8467 3.202837,4.63531 0.04896,0.61296 0.03549,4.92351 -0.01675,5.35873 -0.213206,1.7765 -1.452039,3.51609 -3.201965,4.49625 -1.171854,0.65637 -2.291908,1.0238 -3.580094,1.17446 -0.427839,0.05 -2.032888,0.0802 -4.037017,0.076 -2.662555,-0.006 -3.464346,-0.0304 -4.015628,-0.12394 -0.884184,-0.14997 -1.55072,-0.35042 -2.391892,-0.71928 -0.607885,-0.26658 -0.750643,-0.35419 -1.456539,-0.89396 -0.430428,-0.32914 -0.848919,-0.66589 -0.929977,-0.74834 z"
       id="path827"
       inkscape:connector-curvature="0" />
  </g>
</svg>
