<?xml version="1.0" encoding="UTF-8" standalone="no"?>
<!-- Created with Inkscape (http://www.inkscape.org/) -->

<svg
   xmlns:dc="http://purl.org/dc/elements/1.1/"
   xmlns:cc="http://creativecommons.org/ns#"
   xmlns:rdf="http://www.w3.org/1999/02/22-rdf-syntax-ns#"
   xmlns:svg="http://www.w3.org/2000/svg"
   xmlns="http://www.w3.org/2000/svg"
   xmlns:sodipodi="http://sodipodi.sourceforge.net/DTD/sodipodi-0.dtd"
   xmlns:inkscape="http://www.inkscape.org/namespaces/inkscape"
   width="48"
   height="17"
   viewBox="0 0 48 17"
   version="1.1"
   id="svg4154"
   inkscape:version="0.92.2 (5c3e80d, 2017-08-06)"
   sodipodi:docname="btnLinkOff.svg">
  <defs
     id="defs4148" />
  <sodipodi:namedview
     id="base"
     pagecolor="#ffffff"
     bordercolor="#666666"
     borderopacity="1.0"
     inkscape:pageopacity="0.0"
     inkscape:pageshadow="2"
     inkscape:zoom="10.341437"
     inkscape:cx="22.758485"
     inkscape:cy="9.6460991"
     inkscape:document-units="px"
     inkscape:current-layer="layer1"
     showgrid="true"
     units="px"
     inkscape:window-width="1366"
     inkscape:window-height="708"
     inkscape:window-x="0"
     inkscape:window-y="0"
     inkscape:window-maximized="1">
    <inkscape:grid
       type="xygrid"
       id="grid4699" />
  </sodipodi:namedview>
  <metadata
     id="metadata4151">
    <rdf:RDF>
      <cc:Work
         rdf:about="">
        <dc:format>image/svg+xml</dc:format>
        <dc:type
           rdf:resource="http://purl.org/dc/dcmitype/StillImage" />
        <dc:title />
      </cc:Work>
    </rdf:RDF>
  </metadata>
  <g
     inkscape:label="Calque 1"
     inkscape:groupmode="layer"
     id="layer1"
     transform="translate(0,-324.12499)">
    <path
       style="fill:#000000;stroke-width:1"
       d="M 10.865234 0 C 8.8531944 -0.0041 7.257449 0.025671875 6.828125 0.076171875 C 5.227321 0.26409188 3.8172271 0.80237188 2.5664062 1.7011719 C 1.1391902 2.7267219 0.15159578 4.3552619 0.029296875 5.8886719 C -0.008422125 6.3619319 -0.011419375 10.275935 0.025390625 10.984375 C 0.087347725 12.176795 0.59523635 13.304441 1.5605469 14.400391 C 2.2959955 15.235371 3.6184509 16.076055 4.8398438 16.484375 C 6.2107066 16.942725 6.9665824 17.009 10.865234 17 C 13.515485 16.99434 14.330871 16.969253 14.875 16.876953 C 16.632571 16.578793 18.021908 15.939458 19.240234 14.867188 C 19.789709 14.383588 19.97099 14.177059 20.408203 13.542969 C 20.657731 13.181069 21.093896 12.187364 21.128906 11.902344 L 21.154297 11.695312 L 18.412109 11.693359 L 15.669922 11.689453 L 15.140625 12.101562 C 14.296899 12.755253 14.336936 12.748812 10.830078 12.757812 C 9.2047811 12.761812 7.6950275 12.735119 7.4765625 12.699219 C 6.8620045 12.598249 6.4666759 12.417956 6.0292969 12.035156 C 5.3474369 11.438406 5.3397077 11.390292 5.3398438 8.5136719 C 5.3399688 5.5211319 5.3348061 5.543635 6.1582031 4.890625 C 6.9769701 4.241325 6.9293556 4.2472344 10.587891 4.2402344 C 14.292403 4.2331844 14.28063 4.2319575 15.140625 4.8984375 L 15.669922 5.3085938 L 18.412109 5.3066406 L 21.154297 5.3046875 L 21.128906 5.0976562 C 21.087765 4.7656462 20.670505 3.8531231 20.328125 3.3457031 C 19.42976 2.0142931 17.839583 0.90611812 16.089844 0.39257812 C 14.912072 0.046938125 14.386281 0.008 10.865234 0 z M 37.136719 0.001953125 C 34.557034 0.009003125 33.659873 0.036046875 33.130859 0.12304688 C 31.655305 0.36549688 30.455043 0.84982562 29.380859 1.6347656 C 28.586941 2.2149056 28.116161 2.6843631 27.669922 3.3457031 C 27.327543 3.8531231 26.912244 4.7637031 26.871094 5.0957031 L 26.84375 5.3046875 L 29.585938 5.3066406 L 32.328125 5.3085938 L 32.859375 4.8984375 C 33.720058 4.2312975 33.699994 4.2331875 37.449219 4.2421875 C 41.10295 4.2514975 41.027383 4.2401131 41.867188 4.9082031 C 42.664581 5.5425831 42.659343 5.519475 42.660156 8.484375 C 42.660971 11.462655 42.661432 11.458297 41.867188 12.091797 C 41.425298 12.444257 41.349356 12.484564 40.894531 12.615234 C 40.442367 12.744924 40.146938 12.755906 37.314453 12.753906 C 33.654886 12.751846 33.711299 12.761793 32.859375 12.101562 L 32.328125 11.689453 L 29.585938 11.691406 L 26.84375 11.693359 L 26.871094 11.902344 C 26.942838 12.486314 27.738777 13.902302 28.339844 14.513672 C 28.420902 14.596122 28.839103 14.932579 29.269531 15.261719 C 29.975427 15.801489 30.118678 15.88967 30.726562 16.15625 C 31.567735 16.52511 32.233004 16.72503 33.117188 16.875 C 33.668469 16.96854 34.470258 16.992047 37.132812 16.998047 C 39.136941 17.002247 40.742083 16.973828 41.169922 16.923828 C 42.458108 16.773168 43.578146 16.404417 44.75 15.748047 C 46.499926 14.767887 47.739919 13.028453 47.953125 11.251953 C 48.005365 10.816733 48.01771 6.5055381 47.96875 5.8925781 C 47.825894 4.1039681 46.565191 2.2775425 44.767578 1.2578125 C 43.589769 0.5896625 42.508079 0.23420187 41.169922 0.076171875 C 40.735761 0.024871875 39.17148 -0.003046875 37.136719 0.001953125 z M 28.080078 6.3417969 A 5 3.75 0 0 1 29 8.5 A 5 3.75 0 0 1 28.085938 10.658203 C 33.147325 10.650623 37.618936 10.631093 37.775391 10.585938 C 38.170551 10.471898 38.469502 10.21771 38.613281 9.875 C 38.765945 9.51119 38.763329 7.3517944 38.609375 7.0527344 C 38.468299 6.7786944 38.121504 6.5137625 37.775391 6.4140625 C 37.618498 6.3688373 33.143785 6.3494343 28.080078 6.3417969 z M 19.912109 6.3457031 C 14.815126 6.3578462 10.309342 6.3821457 10.171875 6.4277344 C 9.847045 6.5354644 9.525329 6.7930175 9.390625 7.0546875 C 9.257059 7.3141175 9.2429699 9.5603519 9.3730469 9.8886719 C 9.4839609 10.168642 9.821337 10.456416 10.171875 10.572266 C 10.30973 10.617812 14.817665 10.642114 19.916016 10.654297 A 5 3.75 0 0 1 19 8.5 A 5 3.75 0 0 1 19.912109 6.3457031 z "
       transform="translate(0,324.12499)"
       id="path827" />
  </g>
</svg>
