<?xml version="1.0" encoding="UTF-8" standalone="no"?>
<svg
   xmlns:dc="http://purl.org/dc/elements/1.1/"
   xmlns:cc="http://creativecommons.org/ns#"
   xmlns:rdf="http://www.w3.org/1999/02/22-rdf-syntax-ns#"
   xmlns:svg="http://www.w3.org/2000/svg"
   xmlns="http://www.w3.org/2000/svg"
   xmlns:sodipodi="http://sodipodi.sourceforge.net/DTD/sodipodi-0.dtd"
   xmlns:inkscape="http://www.inkscape.org/namespaces/inkscape"
   width="48"
   height="17"
   viewBox="0 0 48 17"
   version="1.1"
   id="svg4154"
   inkscape:version="1.0.2 (e86c870879, 2021-01-15)"
   sodipodi:docname="btnLinkOn.svg">
  <defs
     id="defs4148" />
  <sodipodi:namedview
     id="base"
     pagecolor="#ffffff"
     bordercolor="#666666"
     borderopacity="1.0"
     inkscape:pageopacity="0.0"
     inkscape:pageshadow="2"
     inkscape:zoom="14.224315"
     inkscape:cx="24"
     inkscape:cy="8.5"
     inkscape:document-units="px"
     inkscape:current-layer="layer1"
     showgrid="true"
     units="px"
     inkscape:window-width="1920"
     inkscape:window-height="1023"
     inkscape:window-x="0"
     inkscape:window-y="0"
     inkscape:window-maximized="1"
     inkscape:document-rotation="0">
    <inkscape:grid
       type="xygrid"
       id="grid4699" />
  </sodipodi:namedview>
  <metadata
     id="metadata4151">
    <rdf:RDF>
      <cc:Work
         rdf:about="">
        <dc:format>image/svg+xml</dc:format>
        <dc:type
           rdf:resource="http://purl.org/dc/dcmitype/StillImage" />
        <dc:title />
      </cc:Work>
    </rdf:RDF>
  </metadata>
  <g
     inkscape:label="Calque 1"
     inkscape:groupmode="layer"
     id="layer1"
     transform="translate(0,-324.12499)">
    <rect
       style="fill:#3f3f60;fill-opacity:1;stroke-linecap:round;stroke-linejoin:round;stroke-miterlimit:1"
       id="rect832"
       width="48"
       height="17"
       x="0"
       y="324.125"
       rx="4"
       ry="4" />
    <path
       style="fill:#ffffff;fill-opacity:1;stroke-width:1"
       d="m 2.4949304,337.83156 c -0.9250893,-0.96703 -1.410636,-1.96291 -1.4700115,-3.01506 -0.0352763,-0.6251 -0.0322949,-4.07805 0.00385,-4.49563 0.1172031,-1.35302 1.0621392,-2.78981 2.429888,-3.69472 1.1987034,-0.79307 2.5514375,-1.2677 4.0855414,-1.43351 0.4114355,-0.0446 1.9402791,-0.0709 3.8684837,-0.0673 3.374338,0.007 3.87863,0.0416 5.007328,0.34654 1.676834,0.45312 3.20081,1.43071 4.061743,2.60549 0.328114,0.44773 0.727078,1.25174 0.766505,1.54469 l 0.02476,0.18408 -2.627755,0.002 -2.627755,0.002 -0.507799,-0.36235 c -0.824162,-0.58807 -0.81294,-0.58658 -4.363098,-0.58036 -3.5060955,0.006 -3.4611622,1.1e-4 -4.2458139,0.57302 -0.7890888,0.57619 -0.7842636,0.55653 -0.7843834,3.19703 -1.303e-4,2.53822 0.00882,2.58005 0.6622659,3.1066 0.4191549,0.33777 0.7976429,0.49801 1.3865943,0.5871 0.2093623,0.0317 1.6550427,0.0546 3.2126181,0.0511 3.360739,-0.008 3.323247,-0.003 4.131817,-0.57944 l 0.507799,-0.36233 2.627755,0.002 2.627755,0.002 -0.02457,0.18421 c -0.03355,0.2515 -0.452373,1.12819 -0.691504,1.44752 -0.418996,0.55949 -0.592521,0.74049 -1.119103,1.1672 -1.167562,0.94613 -2.498055,1.51027 -4.182393,1.77335 -0.521457,0.0814 -1.302946,0.1035 -3.84277,0.1085 -3.7362087,0.008 -4.4611265,-0.0496 -5.7748701,-0.45402 -1.1705015,-0.36029 -2.4381007,-1.10182 -3.1429056,-1.83858 z m 7.487949,-3.98192 c -0.1246571,-0.2897 -0.1119008,-2.27105 0.0161,-2.49996 0.1290916,-0.23088 0.4369006,-0.45869 0.7481956,-0.55375 0.335844,-0.10255 26.068761,-0.11341 26.454181,-0.0111 0.331692,0.088 0.663165,0.32214 0.798363,0.56394 0.147539,0.26388 0.15167,2.16806 0.0054,2.48907 -0.137788,0.3024 -0.424944,0.52647 -0.803639,0.6271 -0.384468,0.10217 -26.117334,0.091 -26.454063,-0.0114 -0.335932,-0.10223 -0.658235,-0.35677 -0.7645276,-0.6038 z m 18.1760276,4.0814 c -0.576023,-0.53945 -1.339398,-1.78817 -1.408153,-2.30344 l -0.02457,-0.18423 2.627755,-0.002 2.627755,-0.002 0.507799,0.36234 c 0.816427,0.58256 0.762185,0.57523 4.26927,0.57705 2.714465,0.002 2.999079,-0.009 3.432403,-0.12344 0.435874,-0.1153 0.508093,-0.15112 0.93157,-0.46212 0.761151,-0.55897 0.760131,-0.5547 0.75935,-3.18262 -7.79e-4,-2.61611 0.0042,-2.59517 -0.759952,-3.15492 -0.804813,-0.5895 -0.730889,-0.57924 -4.232381,-0.58745 -3.593008,-0.008 -3.574366,-0.0109 -4.399188,0.57772 l -0.508871,0.36312 -2.627755,-0.002 -2.627755,-0.002 0.02476,-0.18408 c 0.03944,-0.29295 0.438392,-1.09695 0.766505,-1.54468 0.427646,-0.58354 0.877563,-0.99823 1.638401,-1.51013 1.029426,-0.6926 2.179831,-1.11939 3.593903,-1.33331 0.506972,-0.0768 1.36694,-0.10063 3.839138,-0.10685 1.94998,-0.004 3.44952,0.0206 3.865591,0.0659 1.282401,0.13944 2.318253,0.45262 3.446986,1.04217 1.722713,0.89977 2.932482,2.51181 3.069386,4.09001 0.04692,0.54085 0.03401,4.34431 -0.01605,4.72833 -0.204323,1.56752 -1.391538,3.10246 -3.06855,3.96732 -1.123027,0.57915 -2.196412,0.90336 -3.430924,1.0363 -0.410012,0.0441 -1.948184,0.0708 -3.868808,0.0671 -2.551615,-0.005 -3.319998,-0.0268 -3.84831,-0.10936 -0.847343,-0.13233 -1.486107,-0.3092 -2.29223,-0.63467 -0.582556,-0.23522 -0.719366,-0.31252 -1.39585,-0.78879 -0.412493,-0.29042 -0.813547,-0.58756 -0.891228,-0.66031 z"
       id="path827"
       inkscape:connector-curvature="0" />
  </g>
</svg>
