<?xml version="1.0" encoding="UTF-8" standalone="no"?>
<!-- Created with Inkscape (http://www.inkscape.org/) -->

<svg
   xmlns:dc="http://purl.org/dc/elements/1.1/"
   xmlns:cc="http://creativecommons.org/ns#"
   xmlns:rdf="http://www.w3.org/1999/02/22-rdf-syntax-ns#"
   xmlns:svg="http://www.w3.org/2000/svg"
   xmlns="http://www.w3.org/2000/svg"
   xmlns:sodipodi="http://sodipodi.sourceforge.net/DTD/sodipodi-0.dtd"
   xmlns:inkscape="http://www.inkscape.org/namespaces/inkscape"
   width="100"
   height="100"
   viewBox="0 0 26.458332 26.458332"
   version="1.1"
   id="svg6261"
   inkscape:version="0.92.3 (2405546, 2018-03-11)"
   sodipodi:docname="btnUrgenceOff.svg">
  <defs
     id="defs6255">
    <marker
       inkscape:stockid="Arrow2Send"
       orient="auto"
       refY="0.0"
       refX="0.0"
       id="marker1506"
       style="overflow:visible;"
       inkscape:isstock="true">
      <path
         id="path1504"
         style="fill-rule:evenodd;stroke-width:0.625;stroke-linejoin:round;stroke:#c0c0c2;stroke-opacity:1;fill:#c0c0c2;fill-opacity:1"
         d="M 8.7185878,4.0337352 L -2.2072895,0.016013256 L 8.7185884,-4.0017078 C 6.9730900,-1.6296469 6.9831476,1.6157441 8.7185878,4.0337352 z "
         transform="scale(0.3) rotate(180) translate(-2.3,0)" />
    </marker>
    <marker
       inkscape:isstock="true"
       style="overflow:visible;"
       id="marker1346"
       refX="0.0"
       refY="0.0"
       orient="auto"
       inkscape:stockid="Arrow2Send"
       inkscape:collect="always">
      <path
         transform="scale(0.3) rotate(180) translate(-2.3,0)"
         d="M 8.7185878,4.0337352 L -2.2072895,0.016013256 L 8.7185884,-4.0017078 C 6.9730900,-1.6296469 6.9831476,1.6157441 8.7185878,4.0337352 z "
         style="fill-rule:evenodd;stroke-width:0.625;stroke-linejoin:round;stroke:#c0c0c2;stroke-opacity:1;fill:#c0c0c2;fill-opacity:1"
         id="path1344" />
    </marker>
    <marker
       inkscape:isstock="true"
       style="overflow:visible;"
       id="marker1288"
       refX="0.0"
       refY="0.0"
       orient="auto"
       inkscape:stockid="Arrow2Send">
      <path
         transform="scale(0.3) rotate(180) translate(-2.3,0)"
         d="M 8.7185878,4.0337352 L -2.2072895,0.016013256 L 8.7185884,-4.0017078 C 6.9730900,-1.6296469 6.9831476,1.6157441 8.7185878,4.0337352 z "
         style="fill-rule:evenodd;stroke-width:0.625;stroke-linejoin:round;stroke:#c0c0c2;stroke-opacity:1;fill:#c0c0c2;fill-opacity:1"
         id="path1286" />
    </marker>
    <marker
       inkscape:stockid="Arrow2Send"
       orient="auto"
       refY="0.0"
       refX="0.0"
       id="Arrow2Send"
       style="overflow:visible;"
       inkscape:isstock="true"
       inkscape:collect="always">
      <path
         id="path953"
         style="fill-rule:evenodd;stroke-width:0.625;stroke-linejoin:round;stroke:#c0c0c2;stroke-opacity:1;fill:#c0c0c2;fill-opacity:1"
         d="M 8.7185878,4.0337352 L -2.2072895,0.016013256 L 8.7185884,-4.0017078 C 6.9730900,-1.6296469 6.9831476,1.6157441 8.7185878,4.0337352 z "
         transform="scale(0.3) rotate(180) translate(-2.3,0)" />
    </marker>
    <marker
       inkscape:stockid="Arrow1Send"
       orient="auto"
       refY="0"
       refX="0"
       id="marker5392"
       style="overflow:visible"
       inkscape:isstock="true">
      <path
         inkscape:connector-curvature="0"
         id="path5390"
         d="M 0,0 5,-5 -12.5,0 5,5 Z"
         style="fill:#a00000;fill-opacity:1;fill-rule:evenodd;stroke:#a00000;stroke-width:1.00000003pt;stroke-opacity:1"
         transform="matrix(-0.2,0,0,-0.2,-1.2,0)" />
    </marker>
    <marker
       inkscape:isstock="true"
       style="overflow:visible"
       id="marker5723"
       refX="0"
       refY="0"
       orient="auto"
       inkscape:stockid="Arrow1Send">
      <path
         inkscape:connector-curvature="0"
         transform="matrix(-0.2,0,0,-0.2,-1.2,0)"
         style="fill:#000200;fill-opacity:1;fill-rule:evenodd;stroke:#000200;stroke-width:1.00000003pt;stroke-opacity:1"
         d="M 0,0 5,-5 -12.5,0 5,5 Z"
         id="path5721" />
    </marker>
    <marker
       inkscape:isstock="true"
       style="overflow:visible"
       id="marker5623"
       refX="0"
       refY="0"
       orient="auto"
       inkscape:stockid="Arrow1Send">
      <path
         inkscape:connector-curvature="0"
         transform="matrix(-0.2,0,0,-0.2,-1.2,0)"
         style="fill:#fffffa;fill-opacity:1;fill-rule:evenodd;stroke:#fffffa;stroke-width:1.00000003pt;stroke-opacity:1"
         d="M 0,0 5,-5 -12.5,0 5,5 Z"
         id="path5621" />
    </marker>
    <marker
       inkscape:isstock="true"
       style="overflow:visible"
       id="marker5477"
       refX="0"
       refY="0"
       orient="auto"
       inkscape:stockid="Arrow1Send">
      <path
         inkscape:connector-curvature="0"
         transform="matrix(-0.2,0,0,-0.2,-1.2,0)"
         style="fill:#000200;fill-opacity:1;fill-rule:evenodd;stroke:#000200;stroke-width:1.00000003pt;stroke-opacity:1"
         d="M 0,0 5,-5 -12.5,0 5,5 Z"
         id="path5475" />
    </marker>
    <marker
       inkscape:isstock="true"
       style="overflow:visible"
       id="marker5547"
       refX="0"
       refY="0"
       orient="auto"
       inkscape:stockid="Arrow1Send">
      <path
         inkscape:connector-curvature="0"
         transform="matrix(-0.2,0,0,-0.2,-1.2,0)"
         style="fill:#fffffa;fill-opacity:1;fill-rule:evenodd;stroke:#fffffa;stroke-width:1.00000003pt;stroke-opacity:1"
         d="M 0,0 5,-5 -12.5,0 5,5 Z"
         id="path5545" />
    </marker>
    <marker
       inkscape:stockid="Arrow1Send"
       orient="auto"
       refY="0"
       refX="0"
       id="marker5343"
       style="overflow:visible"
       inkscape:isstock="true">
      <path
         inkscape:connector-curvature="0"
         id="path5341"
         d="M 0,0 5,-5 -12.5,0 5,5 Z"
         style="fill:#a00000;fill-opacity:1;fill-rule:evenodd;stroke:#a00000;stroke-width:1.00000003pt;stroke-opacity:1"
         transform="matrix(-0.2,0,0,-0.2,-1.2,0)" />
    </marker>
    <filter
       inkscape:collect="always"
       style="color-interpolation-filters:sRGB"
       id="filter1232"
       x="-0.036"
       width="1.072"
       y="-0.036"
       height="1.072">
      <feGaussianBlur
         inkscape:collect="always"
         stdDeviation="0.269875"
         id="feGaussianBlur1234" />
    </filter>
    <path
       style="fill:none;fill-opacity:1;stroke:#000010;stroke-width:0.26458332;stroke-linecap:butt;stroke-miterlimit:4;stroke-dasharray:none;stroke-opacity:1"
       id="path925"
       sodipodi:type="arc"
       sodipodi:cx="-114.52678"
       sodipodi:cy="135.60411"
       sodipodi:rx="12.832291"
       sodipodi:ry="12.832291"
       sodipodi:start="0"
       sodipodi:end="3.1415927"
       d="m -101.69449,135.60411 a 12.832291,12.832291 0 0 1 -6.41614,11.11309 12.832291,12.832291 0 0 1 -12.83229,0 12.832291,12.832291 0 0 1 -6.41615,-11.11309"
       sodipodi:open="true"
       transform="scale(-1,1)" />
    <path
       style="fill:none;fill-opacity:1;stroke:#ffbe00;stroke-width:0.26458332;stroke-linecap:round;stroke-miterlimit:4;stroke-dasharray:none;stroke-opacity:1"
       id="path908"
       sodipodi:type="arc"
       sodipodi:cx="114.52678"
       sodipodi:cy="135.60417"
       sodipodi:rx="9.6572914"
       sodipodi:ry="9.6572914"
       sodipodi:start="3.1415927"
       sodipodi:end="0"
       d="m 104.86949,135.60417 a 9.6572914,9.6572914 0 0 1 9.65729,-9.65729 9.6572914,9.6572914 0 0 1 9.65729,9.65729"
       sodipodi:open="true" />
  </defs>
  <sodipodi:namedview
     id="base"
     pagecolor="#ffffff"
     bordercolor="#666666"
     borderopacity="1.0"
     inkscape:pageopacity="0.0"
     inkscape:pageshadow="2"
     inkscape:zoom="5.52"
     inkscape:cx="50"
     inkscape:cy="50"
     inkscape:document-units="px"
     inkscape:current-layer="layer1"
     showgrid="true"
     fit-margin-top="0"
     fit-margin-left="0"
     fit-margin-right="0"
     fit-margin-bottom="0"
     units="px"
     inkscape:window-width="1366"
     inkscape:window-height="739"
     inkscape:window-x="0"
     inkscape:window-y="0"
     inkscape:window-maximized="1">
    <inkscape:grid
       type="xygrid"
       id="grid906" />
  </sodipodi:namedview>
  <metadata
     id="metadata6258">
    <rdf:RDF>
      <cc:Work
         rdf:about="">
        <dc:format>image/svg+xml</dc:format>
        <dc:type
           rdf:resource="http://purl.org/dc/dcmitype/StillImage" />
        <dc:title />
      </cc:Work>
    </rdf:RDF>
  </metadata>
  <g
     inkscape:label="Calque 1"
     inkscape:groupmode="layer"
     id="layer1"
     transform="translate(-101.29761,-122.37501)">
    <path
       style="fill:none;fill-opacity:1;stroke:#000010;stroke-width:0.26458332;stroke-linecap:butt;stroke-miterlimit:4;stroke-dasharray:none;stroke-opacity:1"
       id="path1026"
       sodipodi:type="arc"
       sodipodi:cx="-114.52678"
       sodipodi:cy="135.15681"
       sodipodi:rx="12.83229"
       sodipodi:ry="12.83229"
       sodipodi:start="0"
       sodipodi:end="3.1415927"
       d="m -101.69449,135.15681 a 12.83229,12.83229 0 0 1 -6.41614,11.11309 12.83229,12.83229 0 0 1 -12.83229,0 12.83229,12.83229 0 0 1 -6.41615,-11.11309"
       sodipodi:open="true"
       transform="scale(-1,1)" />
    <path
       style="fill:none;fill-opacity:1;stroke:#ffbe00;stroke-width:0.26458332;stroke-linecap:round;stroke-miterlimit:4;stroke-dasharray:none;stroke-opacity:1"
       id="path1028"
       sodipodi:type="arc"
       sodipodi:cx="114.52678"
       sodipodi:cy="135.15688"
       sodipodi:rx="9.6572914"
       sodipodi:ry="9.6572914"
       sodipodi:start="3.1415927"
       sodipodi:end="0"
       d="m 104.86949,135.15688 a 9.6572914,9.6572914 0 0 1 9.65729,-9.6573 9.6572914,9.6572914 0 0 1 9.65729,9.6573"
       sodipodi:open="true" />
    <circle
       cy="-114.52678"
       cx="135.60417"
       id="path6172"
       style="fill:#fffe00;fill-opacity:1;stroke:none;stroke-width:0.52916664;stroke-linecap:round;stroke-miterlimit:4;stroke-dasharray:none;stroke-opacity:1"
       transform="rotate(90)"
       r="13.229167" />
    <circle
       r="8.9958334"
       cy="135.60416"
       cx="114.52679"
       id="circle881"
       style="fill:#404040;fill-opacity:1;stroke:none;stroke-width:0.51659346;stroke-miterlimit:4;stroke-dasharray:none;stroke-opacity:1;filter:url(#filter1232)"
       transform="matrix(1.0243383,0,0,1.0243387,-2.5114154,-2.9678549)" />
    <circle
       style="fill:#a00000;fill-opacity:1;stroke:#7f1f0f;stroke-width:0.5291667;stroke-miterlimit:4;stroke-dasharray:none;stroke-opacity:1"
       id="path4514"
       cx="114.52679"
       cy="135.60416"
       r="8.9958334" />
    <path
       transform="rotate(-120)"
       sodipodi:open="true"
       d="m -179.20692,26.539109 a 7.0114584,7.0114584 0 0 1 9.01376,1e-6"
       sodipodi:end="5.4105207"
       sodipodi:start="4.0142573"
       sodipodi:ry="7.0114584"
       sodipodi:rx="7.0114584"
       sodipodi:cy="31.910198"
       sodipodi:cx="-174.70004"
       sodipodi:type="arc"
       id="path5303"
       style="fill:none;fill-opacity:1;stroke:#c0c0c2;stroke-width:0.79374999;stroke-linecap:round;stroke-miterlimit:4;stroke-dasharray:none;stroke-opacity:1;marker-end:url(#marker1346)" />
    <path
       transform="rotate(120)"
       style="fill:none;fill-opacity:1;stroke:#c0c0c2;stroke-width:0.79374999;stroke-linecap:round;stroke-miterlimit:4;stroke-dasharray:none;stroke-opacity:1;marker-end:url(#Arrow2Send)"
       id="path5315"
       sodipodi:type="arc"
       sodipodi:cx="60.173248"
       sodipodi:cy="-166.45602"
       sodipodi:rx="7.0114584"
       sodipodi:ry="7.0114584"
       sodipodi:start="4.0142573"
       sodipodi:end="5.4105207"
       d="m 55.66637,-171.82711 a 7.0114584,7.0114584 0 0 1 9.013757,0"
       sodipodi:open="true" />
    <path
       style="fill:none;fill-opacity:1;stroke:#c0c0c2;stroke-width:0.79374999;stroke-linecap:round;stroke-miterlimit:4;stroke-dasharray:none;stroke-opacity:1;marker-end:url(#marker1288)"
       id="path5032"
       sodipodi:type="arc"
       sodipodi:cx="114.52679"
       sodipodi:cy="136.13333"
       sodipodi:rx="7.0114584"
       sodipodi:ry="7.0114584"
       sodipodi:start="4.0142573"
       sodipodi:end="5.4105207"
       d="m 110.01991,130.76224 a 7.0114584,7.0114584 0 0 1 9.01376,0"
       sodipodi:open="true" />
    <g
       id="g89">
      <path
         style="color:#000000;font-style:normal;font-variant:normal;font-weight:normal;font-stretch:normal;font-size:medium;line-height:normal;font-family:sans-serif;font-variant-ligatures:normal;font-variant-position:normal;font-variant-caps:normal;font-variant-numeric:normal;font-variant-alternates:normal;font-feature-settings:normal;text-indent:0;text-align:start;text-decoration:none;text-decoration-line:none;text-decoration-style:solid;text-decoration-color:#000000;letter-spacing:normal;word-spacing:normal;text-transform:none;writing-mode:lr-tb;direction:ltr;text-orientation:mixed;dominant-baseline:auto;baseline-shift:baseline;text-anchor:start;white-space:normal;shape-padding:0;clip-rule:nonzero;display:inline;overflow:visible;visibility:visible;opacity:1;isolation:auto;mix-blend-mode:normal;color-interpolation:sRGB;color-interpolation-filters:linearRGB;solid-color:#000000;solid-opacity:1;vector-effect:none;fill:#c0c0c2;fill-opacity:1;fill-rule:nonzero;stroke:none;stroke-width:0.79374999;stroke-linecap:round;stroke-linejoin:miter;stroke-miterlimit:4;stroke-dasharray:none;stroke-dashoffset:0;stroke-opacity:1;color-rendering:auto;image-rendering:auto;shape-rendering:auto;text-rendering:auto;enable-background:accumulate"
         d="m 108.57062,139.04201 c 0.84648,1.46615 2.1925,2.64586 3.88046,3.26022 a 0.39786783,0.39786783 45 1 0 0.27187,-0.74785 c -3.0189,-1.09878 -4.80884,-4.19906 -4.25097,-7.3629 a 0.39786783,0.39786783 45 1 0 -0.78359,-0.13848 c -0.31193,1.76901 0.0357,3.52285 0.88223,4.98901 z"
         id="path1498"
         inkscape:connector-curvature="0" />
      <path
         d="m 106.86878,135.46046 1.39397,-2.39607 0.4904,2.72834 c -0.48409,-0.50742 -1.24558,-0.63926 -1.88437,-0.33227 z"
         style="fill:#c0c0c2;fill-opacity:1;fill-rule:evenodd;stroke:#c0c0c2;stroke-width:0.14882812;stroke-linejoin:round;stroke-opacity:1"
         id="path95"
         inkscape:connector-curvature="0" />
    </g>
    <g
       id="g81">
      <path
         style="color:#000000;font-style:normal;font-variant:normal;font-weight:normal;font-stretch:normal;font-size:medium;line-height:normal;font-family:sans-serif;font-variant-ligatures:normal;font-variant-position:normal;font-variant-caps:normal;font-variant-numeric:normal;font-variant-alternates:normal;font-feature-settings:normal;text-indent:0;text-align:start;text-decoration:none;text-decoration-line:none;text-decoration-style:solid;text-decoration-color:#000000;letter-spacing:normal;word-spacing:normal;text-transform:none;writing-mode:lr-tb;direction:ltr;text-orientation:mixed;dominant-baseline:auto;baseline-shift:baseline;text-anchor:start;white-space:normal;shape-padding:0;clip-rule:nonzero;display:inline;overflow:visible;visibility:visible;opacity:1;isolation:auto;mix-blend-mode:normal;color-interpolation:sRGB;color-interpolation-filters:linearRGB;solid-color:#000000;solid-opacity:1;vector-effect:none;fill:#c0c0c2;fill-opacity:1;fill-rule:nonzero;stroke:none;stroke-width:0.79374999;stroke-linecap:round;stroke-linejoin:miter;stroke-miterlimit:4;stroke-dasharray:none;stroke-dashoffset:0;stroke-opacity:1;color-rendering:auto;image-rendering:auto;shape-rendering:auto;text-rendering:auto;enable-background:accumulate"
         d="m 120.4831,139.0437 c 0.84649,-1.46615 1.19246,-3.22098 0.88054,-4.98998 a 0.39691468,0.39691468 0 1 0 -0.78092,0.13776 c 0.55787,3.16385 -1.23305,6.26581 -4.25195,7.3646 a 0.39691468,0.39691468 0 1 0 0.27115,0.74518 c 1.68796,-0.61437 3.0347,-1.7914 3.88118,-3.25756 z"
         id="path1500"
         inkscape:connector-curvature="0" />
      <path
         d="m 118.23135,142.30804 -2.77204,-0.009 2.11761,-1.78886 c -0.19739,0.67294 0.0692,1.39832 0.65443,1.79804 z"
         style="fill:#c0c0c2;fill-opacity:1;fill-rule:evenodd;stroke:#c0c0c2;stroke-width:0.14882812;stroke-linejoin:round;stroke-opacity:1"
         id="path87"
         inkscape:connector-curvature="0" />
    </g>
    <g
       id="g97">
      <path
         style="color:#000000;font-style:normal;font-variant:normal;font-weight:normal;font-stretch:normal;font-size:medium;line-height:normal;font-family:sans-serif;font-variant-ligatures:normal;font-variant-position:normal;font-variant-caps:normal;font-variant-numeric:normal;font-variant-alternates:normal;font-feature-settings:normal;text-indent:0;text-align:start;text-decoration:none;text-decoration-line:none;text-decoration-style:solid;text-decoration-color:#000000;letter-spacing:normal;word-spacing:normal;text-transform:none;writing-mode:lr-tb;direction:ltr;text-orientation:mixed;dominant-baseline:auto;baseline-shift:baseline;text-anchor:start;white-space:normal;shape-padding:0;clip-rule:nonzero;display:inline;overflow:visible;visibility:visible;opacity:1;isolation:auto;mix-blend-mode:normal;color-interpolation:sRGB;color-interpolation-filters:linearRGB;solid-color:#000000;solid-opacity:1;vector-effect:none;fill:#c0c0c2;fill-opacity:1;fill-rule:nonzero;stroke:none;stroke-width:0.79374999;stroke-linecap:round;stroke-linejoin:miter;stroke-miterlimit:4;stroke-dasharray:none;stroke-dashoffset:0;stroke-opacity:1;color-rendering:auto;image-rendering:auto;shape-rendering:auto;text-rendering:auto;enable-background:accumulate"
         d="m 114.52734,128.72656 c -1.69297,0 -3.38568,0.57779 -4.76172,1.73242 a 0.39691468,0.39691468 0 1 0 0.50977,0.60743 c 2.46103,-2.06506 6.04287,-2.06506 8.50391,0 a 0.39691468,0.39691468 0 1 0 0.50976,-0.60743 c -1.37604,-1.15463 -3.06874,-1.73242 -4.76172,-1.73242 z"
         id="path1502"
         inkscape:connector-curvature="0" />
      <path
         id="path103"
         style="fill:#c0c0c2;fill-opacity:1;fill-rule:evenodd;stroke:#c0c0c2;stroke-width:0.14882812;stroke-linejoin:round;stroke-opacity:1"
         d="m 118.48024,129.04398 1.37807,2.40524 -2.608,-0.93946 c 0.68148,-0.16553 1.17639,-0.75907 1.22993,-1.46578 z"
         inkscape:connector-curvature="0" />
    </g>
    <g
       aria-label="URGENCE"
       transform="matrix(1.009593,0,0,1.0244486,-1.1674742,-3.7650293)"
       style="font-style:normal;font-weight:normal;font-size:5.64444399px;line-height:1;font-family:sans-serif;letter-spacing:0px;word-spacing:0px;fill:#000000;fill-opacity:1;stroke:none;stroke-width:0.260162"
       id="text924">
      <path
         d="m 106.10814,140.69198 0.49994,0.61918 -1.4394,1.1622 q -0.29753,0.24023 -0.34828,0.44061 -0.0478,0.20069 0.13006,0.42102 0.1792,0.22194 0.38417,0.21585 0.20787,-0.006 0.5054,-0.24601 l 1.43939,-1.16219 0.49994,0.61918 -1.43939,1.16219 q -0.50982,0.41164 -0.96557,0.3572 -0.45575,-0.0544 -0.87908,-0.57873 -0.42202,-0.52269 -0.37921,-0.97968 0.0428,-0.45698 0.55263,-0.86862 z"
         style="font-style:normal;font-variant:normal;font-weight:bold;font-stretch:normal;font-size:4.23333311px;font-family:sans-serif;-inkscape-font-specification:'sans-serif Bold';text-align:center;letter-spacing:0.52916664px;text-anchor:middle;stroke-width:0.260162"
         id="path79"
         inkscape:connector-curvature="0" />
      <path
         d="m 108.25866,144.78335 q 0.20794,0.13899 0.34899,0.12138 0.14277,-0.0164 0.26108,-0.19346 0.11716,-0.17529 0.0766,-0.31179 -0.0388,-0.13534 -0.24677,-0.27433 l -0.2784,-0.18608 -0.43993,0.6582 z m -0.58394,0.27105 -0.64899,0.97097 -0.66163,-0.44222 1.71492,-2.56577 1.01049,0.6754 q 0.50697,0.33884 0.62869,0.66634 0.12345,0.32865 -0.12236,0.69642 -0.17,0.25434 -0.40285,0.3349 -0.23114,0.0817 -0.5303,-0.006 0.11509,0.12168 0.14813,0.30288 0.0359,0.18063 -0.002,0.47584 l -0.12785,0.96872 -0.7046,-0.47094 0.11338,-0.84663 q 0.0341,-0.25565 -0.0167,-0.39158 -0.0491,-0.13479 -0.21068,-0.24276 z"
         style="font-style:normal;font-variant:normal;font-weight:bold;font-stretch:normal;font-size:4.23333311px;font-family:sans-serif;-inkscape-font-specification:'sans-serif Bold';text-align:center;letter-spacing:0.52916664px;text-anchor:middle;stroke-width:0.260162"
         id="path81"
         inkscape:connector-curvature="0" />
      <path
         d="m 112.3425,148.09821 q -0.32637,0.0549 -0.65417,0.034 -0.32779,-0.0209 -0.65503,-0.11705 -0.73974,-0.21734 -1.05089,-0.75687 -0.31057,-0.54152 -0.10255,-1.24954 0.21035,-0.71594 0.77124,-0.99712 0.56089,-0.28117 1.32642,-0.0563 0.2955,0.0868 0.54891,0.22159 0.25538,0.13536 0.46331,0.31494 l -0.18005,0.61282 q -0.20653,-0.21364 -0.43206,-0.35531 -0.22355,-0.14108 -0.46947,-0.21333 -0.45614,-0.13402 -0.77921,0.049 -0.3205,0.18161 -0.45976,0.6556 -0.1381,0.47003 0.0247,0.79578 0.16282,0.32576 0.60111,0.45453 0.119,0.035 0.22422,0.0508 0.10779,0.0144 0.19843,0.007 l 0.16897,-0.57514 -0.46606,-0.13693 0.15033,-0.51167 1.18994,0.34961 z"
         style="font-style:normal;font-variant:normal;font-weight:bold;font-stretch:normal;font-size:4.23333311px;font-family:sans-serif;-inkscape-font-specification:'sans-serif Bold';text-align:center;letter-spacing:0.52916664px;text-anchor:middle;stroke-width:0.260162"
         id="path83"
         inkscape:connector-curvature="0" />
      <path
         d="m 113.50301,145.35396 2.14765,-0.008 0.002,0.60151 -1.35184,0.005 0.002,0.57463 1.27123,-0.005 0.002,0.60151 -1.27123,0.005 0.002,0.70693 1.39733,-0.005 0.002,0.60151 -2.19314,0.008 z"
         style="font-style:normal;font-variant:normal;font-weight:bold;font-stretch:normal;font-size:4.23333311px;font-family:sans-serif;-inkscape-font-specification:'sans-serif Bold';text-align:center;letter-spacing:0.52916664px;text-anchor:middle;stroke-width:0.260162"
         id="path85"
         inkscape:connector-curvature="0" />
      <path
         d="m 116.0427,145.33108 0.85024,-0.25906 1.69061,1.69762 -0.61693,-2.02476 0.72172,-0.2199 0.89948,2.95212 -0.85024,0.25906 -1.69061,-1.69762 0.61693,2.02476 -0.72172,0.2199 z"
         style="font-style:normal;font-variant:normal;font-weight:bold;font-stretch:normal;font-size:4.23333311px;font-family:sans-serif;-inkscape-font-specification:'sans-serif Bold';text-align:center;letter-spacing:0.52916664px;text-anchor:middle;stroke-width:0.260162"
         id="path88"
         inkscape:connector-curvature="0" />
      <path
         d="m 122.6991,145.36154 q -0.11745,0.21711 -0.28164,0.39849 -0.1642,0.18138 -0.37799,0.32648 -0.63797,0.43296 -1.25227,0.33025 -0.61546,-0.10442 -1.02985,-0.71502 -0.41555,-0.61231 -0.28413,-1.22111 0.13026,-0.61052 0.76823,-1.04348 0.21379,-0.1451 0.44299,-0.2307 0.22919,-0.0856 0.47433,-0.11456 l 0.35868,0.5285 q -0.26775,-6.6e-4 -0.48509,0.0619 -0.21735,0.0626 -0.41404,0.19606 -0.35233,0.23911 -0.40094,0.60185 -0.0486,0.36274 0.2207,0.75955 0.26813,0.39509 0.62318,0.48389 0.35504,0.0888 0.70738,-0.15032 0.19669,-0.13349 0.3351,-0.31236 0.13841,-0.17887 0.23669,-0.42793 z"
         style="font-style:normal;font-variant:normal;font-weight:bold;font-stretch:normal;font-size:4.23333311px;font-family:sans-serif;-inkscape-font-specification:'sans-serif Bold';text-align:center;letter-spacing:0.52916664px;text-anchor:middle;stroke-width:0.260162"
         id="path90"
         inkscape:connector-curvature="0" />
      <path
         d="m 121.30421,142.68794 1.38228,-1.64372 0.46037,0.38715 -0.87008,1.03463 0.4398,0.36985 0.81819,-0.97294 0.46037,0.38715 -0.81819,0.97294 0.54104,0.45499 0.89935,-1.06944 0.46037,0.38715 -1.41155,1.67851 z"
         style="font-style:normal;font-variant:normal;font-weight:bold;font-stretch:normal;font-size:4.23333311px;font-family:sans-serif;-inkscape-font-specification:'sans-serif Bold';text-align:center;letter-spacing:0.52916664px;text-anchor:middle;stroke-width:0.260162"
         id="path92"
         inkscape:connector-curvature="0" />
    </g>
    <g
       aria-label="ARRET"
       transform="matrix(0.99631982,0,0,1.0182105,0.41130341,-2.1547554)"
       style="font-style:normal;font-weight:normal;font-size:10.58333302px;line-height:1.25;font-family:sans-serif;text-align:center;letter-spacing:0px;word-spacing:0px;text-anchor:middle;fill:#000000;fill-opacity:1;stroke:none;stroke-width:0.26269045"
       id="text931">
      <path
         d="m 108.95383,127.014 -1.00025,0.74024 0.17662,0.56875 -0.64302,0.47587 -0.91701,-3.16067 0.76265,-0.5644 2.75468,1.80069 -0.64302,0.47587 z m -1.18135,0.16195 0.67957,-0.50293 -1.06935,-0.73611 z"
         style="font-style:normal;font-variant:normal;font-weight:bold;font-stretch:normal;font-size:4.23333311px;font-family:sans-serif;-inkscape-font-specification:'sans-serif Bold';stroke-width:0.26269045"
         id="path68"
         inkscape:connector-curvature="0" />
      <path
         d="m 111.07825,124.76122 q 0.23909,-0.0734 0.31452,-0.19392 0.0774,-0.12109 0.0149,-0.32461 -0.0619,-0.20155 -0.19334,-0.25632 -0.12946,-0.0554 -0.36855,0.0181 l -0.3201,0.0983 0.23247,0.75678 z m -0.15864,0.62393 0.34293,1.1164 -0.76073,0.23368 -0.90621,-2.95007 1.16185,-0.3569 q 0.5829,-0.17905 0.91369,-0.0666 0.33277,0.11186 0.46266,0.53471 0.0898,0.29243 0.005,0.52385 -0.0826,0.23081 -0.33985,0.40713 0.16703,-0.0124 0.32838,0.0764 0.16272,0.0862 0.36748,0.3023 l 0.67033,0.71094 -0.81014,0.24885 -0.5848,-0.6226 q -0.17666,-0.18792 -0.31417,-0.23434 -0.13554,-0.047 -0.32128,0.01 z"
         style="font-style:normal;font-variant:normal;font-weight:bold;font-stretch:normal;font-size:4.23333311px;font-family:sans-serif;-inkscape-font-specification:'sans-serif Bold';stroke-width:0.26269045"
         id="path70"
         inkscape:connector-curvature="0" />
      <path
         d="m 114.86002,124.2334 q 0.24993,0.01 0.36094,-0.0791 0.11306,-0.0887 0.1213,-0.30146 0.008,-0.21068 -0.0978,-0.3058 -0.10389,-0.095 -0.35382,-0.10471 l -0.33461,-0.013 -0.0306,0.79109 z m -0.35587,0.53647 -0.0452,1.16702 -0.79522,-0.0308 0.11935,-3.08381 1.21452,0.047 q 0.60933,0.0236 0.88439,0.23902 0.27712,0.21551 0.26002,0.65753 -0.0118,0.3057 -0.16815,0.49617 -0.15424,0.19054 -0.45527,0.27198 0.16173,0.0435 0.28468,0.18064 0.12509,0.13517 0.24697,0.40674 l 0.3978,0.89248 -0.84686,-0.0328 -0.34627,-0.78085 q -0.10465,-0.23573 -0.2191,-0.32498 -0.11239,-0.0892 -0.30655,-0.0967 z"
         style="font-style:normal;font-variant:normal;font-weight:bold;font-stretch:normal;font-size:4.23333311px;font-family:sans-serif;-inkscape-font-specification:'sans-serif Bold';stroke-width:0.26269045"
         id="path72"
         inkscape:connector-curvature="0" />
      <path
         d="m 117.99472,123.29335 2.0119,0.75151 -0.21048,0.56348 -1.26639,-0.47303 -0.20108,0.53831 1.19088,0.44483 -0.21048,0.56348 -1.19087,-0.44482 -0.24737,0.66224 1.30899,0.48895 -0.21047,0.56349 -2.05451,-0.76742 z"
         style="font-style:normal;font-variant:normal;font-weight:bold;font-stretch:normal;font-size:4.23333311px;font-family:sans-serif;-inkscape-font-specification:'sans-serif Bold';stroke-width:0.26269045"
         id="path74"
         inkscape:connector-curvature="0" />
      <path
         d="m 121.18144,124.64237 2.25183,1.73756 -0.36746,0.47623 -0.81007,-0.62507 -1.51784,1.96708 -0.63006,-0.48616 1.51784,-1.96708 -0.8117,-0.62633 z"
         style="font-style:normal;font-variant:normal;font-weight:bold;font-stretch:normal;font-size:4.23333311px;font-family:sans-serif;-inkscape-font-specification:'sans-serif Bold';stroke-width:0.26269045"
         id="path76"
         inkscape:connector-curvature="0" />
    </g>
  </g>
</svg>
