<?xml version="1.0" encoding="UTF-8" standalone="no"?>
<!-- Created with Inkscape (http://www.inkscape.org/) -->

<svg
   xmlns:dc="http://purl.org/dc/elements/1.1/"
   xmlns:cc="http://creativecommons.org/ns#"
   xmlns:rdf="http://www.w3.org/1999/02/22-rdf-syntax-ns#"
   xmlns:svg="http://www.w3.org/2000/svg"
   xmlns="http://www.w3.org/2000/svg"
   xmlns:sodipodi="http://sodipodi.sourceforge.net/DTD/sodipodi-0.dtd"
   xmlns:inkscape="http://www.inkscape.org/namespaces/inkscape"
   width="100"
   height="100"
   viewBox="0 0 26.458332 26.458332"
   version="1.1"
   id="svg6261"
   inkscape:version="0.92.2 (5c3e80d, 2017-08-06)"
   sodipodi:docname="btnUrgenceOff.svg"
   inkscape:export-filename="D:\Users\Gauthier\Documents\Gauthier\src\arretUrgenceOff.png"
   inkscape:export-xdpi="96"
   inkscape:export-ydpi="96">
  <defs
     id="defs6255">
    <marker
       inkscape:stockid="Arrow1Send"
       orient="auto"
       refY="0"
       refX="0"
       id="Arrow1Send"
       style="overflow:visible"
       inkscape:isstock="true"
       inkscape:collect="always">
      <path
         inkscape:connector-curvature="0"
         id="path4533"
         d="M 0,0 5,-5 -12.5,0 5,5 Z"
         style="fill:#000200;fill-opacity:1;fill-rule:evenodd;stroke:#000200;stroke-width:1.00000003pt;stroke-opacity:1"
         transform="matrix(-0.2,0,0,-0.2,-1.2,0)" />
    </marker>
    <marker
       inkscape:stockid="Arrow1Send"
       orient="auto"
       refY="0"
       refX="0"
       id="marker5036"
       style="overflow:visible"
       inkscape:isstock="true"
       inkscape:collect="always">
      <path
         inkscape:connector-curvature="0"
         id="path5034"
         d="M 0,0 5,-5 -12.5,0 5,5 Z"
         style="fill:#a0a0a0;fill-opacity:1;fill-rule:evenodd;stroke:#a0a0a0;stroke-width:1.00000003pt;stroke-opacity:1"
         transform="matrix(-0.2,0,0,-0.2,-1.2,0)" />
    </marker>
    <marker
       inkscape:stockid="Arrow1Send"
       orient="auto"
       refY="0"
       refX="0"
       id="marker5392"
       style="overflow:visible"
       inkscape:isstock="true">
      <path
         inkscape:connector-curvature="0"
         id="path5390"
         d="M 0,0 5,-5 -12.5,0 5,5 Z"
         style="fill:#a00000;fill-opacity:1;fill-rule:evenodd;stroke:#a00000;stroke-width:1.00000003pt;stroke-opacity:1"
         transform="matrix(-0.2,0,0,-0.2,-1.2,0)" />
    </marker>
    <marker
       inkscape:isstock="true"
       style="overflow:visible"
       id="marker5723"
       refX="0"
       refY="0"
       orient="auto"
       inkscape:stockid="Arrow1Send">
      <path
         inkscape:connector-curvature="0"
         transform="matrix(-0.2,0,0,-0.2,-1.2,0)"
         style="fill:#000200;fill-opacity:1;fill-rule:evenodd;stroke:#000200;stroke-width:1.00000003pt;stroke-opacity:1"
         d="M 0,0 5,-5 -12.5,0 5,5 Z"
         id="path5721" />
    </marker>
    <marker
       inkscape:isstock="true"
       style="overflow:visible"
       id="marker5623"
       refX="0"
       refY="0"
       orient="auto"
       inkscape:stockid="Arrow1Send">
      <path
         inkscape:connector-curvature="0"
         transform="matrix(-0.2,0,0,-0.2,-1.2,0)"
         style="fill:#a0a0a0;fill-opacity:1;fill-rule:evenodd;stroke:#a0a0a0;stroke-width:1.00000003pt;stroke-opacity:1"
         d="M 0,0 5,-5 -12.5,0 5,5 Z"
         id="path5621" />
    </marker>
    <marker
       inkscape:isstock="true"
       style="overflow:visible"
       id="marker4898"
       refX="0"
       refY="0"
       orient="auto"
       inkscape:stockid="Arrow1Send"
       inkscape:collect="always">
      <path
         inkscape:connector-curvature="0"
         transform="matrix(-0.2,0,0,-0.2,-1.2,0)"
         style="fill:#a00000;fill-opacity:1;fill-rule:evenodd;stroke:#a00000;stroke-width:1.00000003pt;stroke-opacity:1"
         d="M 0,0 5,-5 -12.5,0 5,5 Z"
         id="path4896" />
    </marker>
    <marker
       inkscape:isstock="true"
       style="overflow:visible"
       id="marker5477"
       refX="0"
       refY="0"
       orient="auto"
       inkscape:stockid="Arrow1Send">
      <path
         inkscape:connector-curvature="0"
         transform="matrix(-0.2,0,0,-0.2,-1.2,0)"
         style="fill:#000200;fill-opacity:1;fill-rule:evenodd;stroke:#000200;stroke-width:1.00000003pt;stroke-opacity:1"
         d="M 0,0 5,-5 -12.5,0 5,5 Z"
         id="path5475" />
    </marker>
    <marker
       inkscape:isstock="true"
       style="overflow:visible"
       id="marker5547"
       refX="0"
       refY="0"
       orient="auto"
       inkscape:stockid="Arrow1Send">
      <path
         inkscape:connector-curvature="0"
         transform="matrix(-0.2,0,0,-0.2,-1.2,0)"
         style="fill:#a0a0a0;fill-opacity:1;fill-rule:evenodd;stroke:#a0a0a0;stroke-width:1.00000003pt;stroke-opacity:1"
         d="M 0,0 5,-5 -12.5,0 5,5 Z"
         id="path5545" />
    </marker>
    <marker
       inkscape:stockid="Arrow1Send"
       orient="auto"
       refY="0"
       refX="0"
       id="marker5343"
       style="overflow:visible"
       inkscape:isstock="true">
      <path
         inkscape:connector-curvature="0"
         id="path5341"
         d="M 0,0 5,-5 -12.5,0 5,5 Z"
         style="fill:#a00000;fill-opacity:1;fill-rule:evenodd;stroke:#a00000;stroke-width:1.00000003pt;stroke-opacity:1"
         transform="matrix(-0.2,0,0,-0.2,-1.2,0)" />
    </marker>
  </defs>
  <sodipodi:namedview
     id="base"
     pagecolor="#ffffff"
     bordercolor="#666666"
     borderopacity="1.0"
     inkscape:pageopacity="0.0"
     inkscape:pageshadow="2"
     inkscape:zoom="8"
     inkscape:cx="51.698929"
     inkscape:cy="51.532247"
     inkscape:document-units="mm"
     inkscape:current-layer="layer1"
     showgrid="true"
     fit-margin-top="0"
     fit-margin-left="0"
     fit-margin-right="0"
     fit-margin-bottom="0"
     units="px"
     inkscape:window-width="1920"
     inkscape:window-height="1017"
     inkscape:window-x="-8"
     inkscape:window-y="-8"
     inkscape:window-maximized="1">
    <inkscape:grid
       type="xygrid"
       id="grid906" />
  </sodipodi:namedview>
  <metadata
     id="metadata6258">
    <rdf:RDF>
      <cc:Work
         rdf:about="">
        <dc:format>image/svg+xml</dc:format>
        <dc:type
           rdf:resource="http://purl.org/dc/dcmitype/StillImage" />
        <dc:title />
      </cc:Work>
    </rdf:RDF>
  </metadata>
  <g
     inkscape:label="Calque 1"
     inkscape:groupmode="layer"
     id="layer1"
     transform="translate(-101.29761,-122.37501)">
    <path
       style="fill:none;fill-opacity:1;stroke:#000010;stroke-width:0.26458332;stroke-linecap:butt;stroke-miterlimit:4;stroke-dasharray:none;stroke-opacity:1"
       id="path925"
       sodipodi:type="arc"
       sodipodi:cx="-114.52677"
       sodipodi:cy="135.33974"
       sodipodi:rx="12.303124"
       sodipodi:ry="12.567653"
       sodipodi:start="0"
       sodipodi:end="3.1415927"
       d="m -102.22365,135.33974 a 12.303124,12.567653 0 0 1 -6.15156,10.8839 12.303124,12.567653 0 0 1 -12.30312,0 12.303124,12.567653 0 0 1 -6.15157,-10.8839"
       sodipodi:open="true"
       transform="scale(-1,1)" />
    <circle
       style="fill:none;fill-opacity:1;stroke:#ffbe00;stroke-width:0.26458332;stroke-linecap:round;stroke-miterlimit:4;stroke-dasharray:none;stroke-opacity:1"
       id="path908"
       cx="114.52678"
       cy="135.60417"
       r="9.921875" />
    <circle
       cy="-114.52678"
       cx="135.60417"
       id="path6172"
       style="fill:#fffe00;fill-opacity:1;stroke:none;stroke-width:0.52916664;stroke-linecap:round;stroke-miterlimit:4;stroke-dasharray:none;stroke-opacity:1"
       transform="rotate(90)"
       r="13.229167" />
    <g
       id="g6170"
       transform="translate(105.26637,-152.1354)">
      <circle
         r="8.9958334"
         cy="287.73956"
         cx="9.260417"
         id="path4514"
         style="fill:#a00000;fill-opacity:1;stroke:#7f1f0f;stroke-width:0.5291667;stroke-miterlimit:4;stroke-dasharray:none;stroke-opacity:1" />
      <g
         id="g6154">
        <g
           id="g6140">
          <path
             style="fill:none;fill-opacity:1;stroke:#000200;stroke-width:0.79374999;stroke-linecap:round;stroke-miterlimit:4;stroke-dasharray:none;stroke-opacity:1;marker-end:url(#Arrow1Send)"
             id="path5301"
             sodipodi:type="arc"
             sodipodi:cx="-253.81998"
             sodipodi:cy="-135.85002"
             sodipodi:rx="7.0114584"
             sodipodi:ry="7.0114584"
             sodipodi:start="4.0142573"
             sodipodi:end="5.4105207"
             d="m -258.32686,-141.22111 a 7.0114584,7.0114584 0 0 1 9.01376,0"
             sodipodi:open="true"
             transform="rotate(-120)" />
          <path
             style="fill:none;fill-opacity:1;stroke:#a0a0a0;stroke-width:0.79374999;stroke-linecap:round;stroke-miterlimit:4;stroke-dasharray:none;stroke-opacity:1;marker-end:url(#marker5036)"
             id="path5303"
             sodipodi:type="arc"
             sodipodi:cx="-253.81998"
             sodipodi:cy="-135.32085"
             sodipodi:rx="7.0114584"
             sodipodi:ry="7.0114584"
             sodipodi:start="4.0142573"
             sodipodi:end="5.4105207"
             d="m -258.32686,-140.69194 a 7.0114584,7.0114584 0 0 1 9.01376,0"
             sodipodi:open="true"
             transform="rotate(-120)" />
          <path
             sodipodi:open="true"
             d="m -258.32686,-140.95652 a 7.0114584,7.0114584 0 0 1 9.01376,0"
             sodipodi:end="5.4105207"
             sodipodi:start="4.0142573"
             sodipodi:ry="7.0114584"
             sodipodi:rx="7.0114584"
             sodipodi:cy="-135.58543"
             sodipodi:cx="-253.81998"
             sodipodi:type="arc"
             id="path5305"
             style="fill:none;fill-opacity:1;stroke:#a00000;stroke-width:0.5291667;stroke-linecap:round;stroke-miterlimit:4;stroke-dasharray:none;stroke-opacity:1;marker-end:url(#marker5392)"
             transform="rotate(-120)" />
        </g>
        <g
           id="g6129">
          <path
             sodipodi:open="true"
             d="m 240.05268,-157.26063 a 7.0114584,7.0114584 0 0 1 9.01375,0"
             sodipodi:end="5.4105207"
             sodipodi:start="4.0142573"
             sodipodi:ry="7.0114584"
             sodipodi:rx="7.0114584"
             sodipodi:cy="-151.88954"
             sodipodi:cx="244.55956"
             sodipodi:type="arc"
             id="path5313"
             style="fill:none;fill-opacity:1;stroke:#000200;stroke-width:0.79374999;stroke-linecap:round;stroke-miterlimit:4;stroke-dasharray:none;stroke-opacity:1;marker-end:url(#marker5723)"
             transform="rotate(120)" />
          <path
             sodipodi:open="true"
             d="m 240.05268,-156.73146 a 7.0114584,7.0114584 0 0 1 9.01375,0"
             sodipodi:end="5.4105207"
             sodipodi:start="4.0142573"
             sodipodi:ry="7.0114584"
             sodipodi:rx="7.0114584"
             sodipodi:cy="-151.36037"
             sodipodi:cx="244.55956"
             sodipodi:type="arc"
             id="path5315"
             style="fill:none;fill-opacity:1;stroke:#a0a0a0;stroke-width:0.79374999;stroke-linecap:round;stroke-miterlimit:4;stroke-dasharray:none;stroke-opacity:1;marker-end:url(#marker5623)"
             transform="rotate(120)" />
          <path
             style="fill:none;fill-opacity:1;stroke:#a00000;stroke-width:0.5291667;stroke-linecap:round;stroke-miterlimit:4;stroke-dasharray:none;stroke-opacity:1;marker-end:url(#marker4898)"
             id="path5317"
             sodipodi:type="arc"
             sodipodi:cx="244.55956"
             sodipodi:cy="-151.62495"
             sodipodi:rx="7.0114584"
             sodipodi:ry="7.0114584"
             sodipodi:start="4.0142573"
             sodipodi:end="5.4105207"
             d="m 240.05268,-156.99604 a 7.0114584,7.0114584 0 0 1 9.01375,0"
             sodipodi:open="true"
             transform="rotate(120)" />
        </g>
        <g
           id="g6118">
          <path
             sodipodi:open="true"
             d="m 4.7535385,282.36847 a 7.0114584,7.0114584 0 0 1 9.0137575,0"
             sodipodi:end="5.4105207"
             sodipodi:start="4.0142573"
             sodipodi:ry="7.0114584"
             sodipodi:rx="7.0114584"
             sodipodi:cy="287.73956"
             sodipodi:cx="9.260417"
             sodipodi:type="arc"
             id="path4516"
             style="fill:none;fill-opacity:1;stroke:#000200;stroke-width:0.79374999;stroke-linecap:round;stroke-miterlimit:4;stroke-dasharray:none;stroke-opacity:1;marker-end:url(#marker5477)" />
          <path
             sodipodi:open="true"
             d="m 4.7535385,282.89765 a 7.0114584,7.0114584 0 0 1 9.0137575,0"
             sodipodi:end="5.4105207"
             sodipodi:start="4.0142573"
             sodipodi:ry="7.0114584"
             sodipodi:rx="7.0114584"
             sodipodi:cy="288.26874"
             sodipodi:cx="9.260417"
             sodipodi:type="arc"
             id="path5032"
             style="fill:none;fill-opacity:1;stroke:#a0a0a0;stroke-width:0.79374999;stroke-linecap:round;stroke-miterlimit:4;stroke-dasharray:none;stroke-opacity:1;marker-end:url(#marker5547)" />
          <path
             style="fill:none;fill-opacity:1;stroke:#a00000;stroke-width:0.5291667;stroke-linecap:round;stroke-miterlimit:4;stroke-dasharray:none;stroke-opacity:1;marker-end:url(#marker5343)"
             id="path4894"
             sodipodi:type="arc"
             sodipodi:cx="9.260417"
             sodipodi:cy="288.00415"
             sodipodi:rx="7.0114584"
             sodipodi:ry="7.0114584"
             sodipodi:start="4.0142573"
             sodipodi:end="5.4105207"
             d="m 4.7535385,282.63306 a 7.0114584,7.0114584 0 0 1 9.0137575,0"
             sodipodi:open="true" />
        </g>
      </g>
    </g>
    <g
       aria-label="Arrêt"
       transform="rotate(90,114.52678,135.60417)"
       style="font-style:normal;font-weight:normal;font-size:4.23333311px;line-height:6.61458302px;font-family:sans-serif;text-align:center;letter-spacing:0px;word-spacing:0px;text-anchor:middle;fill:#3f3f3f;fill-opacity:1;stroke:none;stroke-width:0.26458332"
       id="text912">
      <path
         d="m 104.85229,138.25704 0.3026,0.68869 -0.44365,0.4081 0.42075,0.95758 0.60066,-0.0507 0.29498,0.67134 -3.00224,0.18084 -0.3369,-0.76676 z m -0.54374,1.46621 -0.78687,0.72448 1.06584,-0.0896 z"
         style="font-style:normal;font-variant:normal;font-weight:bold;font-stretch:normal;font-size:3.88055563px;font-family:sans-serif;-inkscape-font-specification:'sans-serif Bold';fill:#3f3f3f;fill-opacity:1"
         id="path909" />
      <path
         d="m 103.13271,136.58058 0.01,0.0598 q -0.008,0.0455 3.4e-4,0.14205 0.008,0.0966 0.0187,0.16015 0.0237,0.14396 0.0606,0.25119 0.0369,0.10723 0.10265,0.22698 l 1.40597,-0.23146 0.1108,0.67307 -2.0996,0.34565 -0.1108,-0.67307 0.30849,-0.0508 q -0.22733,-0.1911 -0.31612,-0.34547 -0.0906,-0.15406 -0.11342,-0.29241 -0.006,-0.0355 -0.0114,-0.0807 -0.006,-0.0452 -0.007,-0.0795 z"
         style="font-style:normal;font-variant:normal;font-weight:bold;font-stretch:normal;font-size:3.88055563px;font-family:sans-serif;-inkscape-font-specification:'sans-serif Bold';fill:#3f3f3f;fill-opacity:1"
         id="path911" />
      <path
         d="m 103.15928,134.35861 -0.002,0.0606 q -0.0165,0.0431 -0.027,0.13947 -0.0105,0.0964 -0.0124,0.16076 -0.004,0.14583 0.0112,0.25814 0.0156,0.11232 0.0571,0.24248 l 1.42425,0.043 -0.0206,0.68182 -2.12689,-0.0642 0.0206,-0.68182 0.3125,0.009 q -0.18638,-0.23121 -0.24384,-0.39977 -0.0594,-0.16861 -0.0551,-0.30876 0.001,-0.036 0.004,-0.0814 0.003,-0.0454 0.008,-0.0794 z"
         style="font-style:normal;font-variant:normal;font-weight:bold;font-stretch:normal;font-size:3.88055563px;font-family:sans-serif;-inkscape-font-specification:'sans-serif Bold';fill:#3f3f3f;fill-opacity:1"
         id="path913" />
      <path
         d="m 104.31062,131.74323 -0.39716,1.50996 q 0.24575,0.049 0.41836,-0.0859 0.1731,-0.13669 0.25986,-0.46653 0.0549,-0.2089 0.0314,-0.42474 -0.0236,-0.21584 -0.0798,-0.3521 l 0.0193,-0.0733 0.52958,0.13929 q 0.031,0.24718 0.0192,0.45569 -0.0117,0.20851 -0.0749,0.44857 -0.16291,0.61937 -0.5282,0.87596 -0.36529,0.25658 -0.88022,0.12115 -0.50943,-0.134 -0.72435,-0.5236 -0.21628,-0.39191 -0.0731,-0.93616 0.13207,-0.5021 0.45329,-0.68798 0.3194,-0.18637 0.79584,-0.0611 z m -0.55921,0.55433 q -0.20851,-0.049 -0.33851,0.0207 -0.12999,0.0696 -0.18398,0.27489 -0.0501,0.19058 0.0165,0.33938 0.0667,0.1488 0.28087,0.22082 z m -0.93925,-0.72706 -0.12724,0.48377 -0.49048,0.23346 0.31263,0.44273 -0.12532,0.47644 -0.56545,-0.77764 0.12098,-0.45995 z"
         style="font-style:normal;font-variant:normal;font-weight:bold;font-stretch:normal;font-size:3.88055563px;font-family:sans-serif;-inkscape-font-specification:'sans-serif Bold';fill:#3f3f3f;fill-opacity:1"
         id="path915" />
      <path
         d="m 106.05929,130.33256 q -0.0252,0.11068 -0.0684,0.22703 -0.0414,0.11723 -0.12327,0.27543 -0.18282,0.35343 -0.41554,0.45278 -0.23185,0.0977 -0.57854,-0.0817 l -0.88356,-0.45704 -0.12884,0.24908 -0.41065,-0.21241 0.12884,-0.24909 -0.54024,-0.27944 0.3134,-0.60587 0.54024,0.27944 0.29338,-0.56716 0.41064,0.21241 -0.29337,0.56717 0.66982,0.34648 q 0.0993,0.0514 0.17422,0.088 0.0749,0.0366 0.14688,0.0419 0.0711,0.007 0.13691,-0.0337 0.065,-0.0432 0.12419,-0.15762 0.0244,-0.0471 0.0434,-0.1333 0.0199,-0.0879 0.0187,-0.12686 l 0.0261,-0.0505 z"
         style="font-style:normal;font-variant:normal;font-weight:bold;font-stretch:normal;font-size:3.88055563px;font-family:sans-serif;-inkscape-font-specification:'sans-serif Bold';fill:#3f3f3f;fill-opacity:1"
         id="path917" />
    </g>
    <g
       aria-label="d'Urgence"
       style="font-style:normal;font-weight:normal;font-size:3.52777767px;line-height:6.61458302px;font-family:sans-serif;text-align:center;letter-spacing:0px;word-spacing:0px;text-anchor:middle;fill:#3f3f3f;fill-opacity:1;stroke:none;stroke-width:0.26458332"
       id="text919">
      <path
         d="m 106.5933,145.00247 -0.47942,-0.48524 0.15771,-0.15581 q -0.22629,-0.0242 -0.38268,-0.0854 -0.1564,-0.0612 -0.29756,-0.20412 -0.273,-0.27632 -0.22383,-0.65252 0.0492,-0.3762 0.41041,-0.7331 0.19275,-0.19043 0.39562,-0.28166 0.20555,-0.0912 0.40791,-0.0994 0.19165,-0.008 0.37609,0.0679 0.18579,0.0748 0.31496,0.20557 0.13451,0.13613 0.19008,0.2517 0.0583,0.11558 0.10433,0.25118 l 0.6443,-0.63656 0.47941,0.48525 z m -0.0616,-0.89807 0.7427,-0.73377 q -0.029,-0.0725 -0.0755,-0.13846 -0.0465,-0.0659 -0.0931,-0.11311 -0.18911,-0.1914 -0.40362,-0.16858 -0.21317,0.0215 -0.42479,0.23056 -0.2224,0.21974 -0.24759,0.39644 -0.0238,0.17538 0.14396,0.34522 0.0653,0.066 0.16276,0.11621 0.0989,0.0488 0.19522,0.0655 z"
         style="font-style:normal;font-variant:normal;font-weight:bold;font-stretch:normal;font-size:3.88055563px;font-family:sans-serif;-inkscape-font-specification:'sans-serif Bold';fill:#3f3f3f;fill-opacity:1;stroke-width:0.26458332"
         id="path920" />
      <path
         d="m 109.38209,143.38057 -0.74906,0.83509 -0.34612,-0.25216 0.56529,-0.96898 z"
         style="font-style:normal;font-variant:normal;font-weight:bold;font-stretch:normal;font-size:3.88055563px;font-family:sans-serif;-inkscape-font-specification:'sans-serif Bold';fill:#3f3f3f;fill-opacity:1;stroke-width:0.26458332"
         id="path922" />
      <path
         d="m 110.85746,146.33296 q -0.22672,0.47126 -0.63433,0.58426 -0.40761,0.113 -0.96596,-0.15561 -0.55835,-0.26861 -0.72445,-0.65761 -0.1644,-0.38818 0.0615,-0.85774 l 0.78119,-1.62382 0.65909,0.31707 -0.76311,1.58626 q -0.12733,0.26466 -0.0788,0.44782 0.0486,0.18316 0.29785,0.30309 0.24588,0.11829 0.41854,0.0479 0.17436,-0.0696 0.30662,-0.34451 l 0.76311,-1.58626 0.65909,0.31708 z"
         style="font-style:normal;font-variant:normal;font-weight:bold;font-stretch:normal;font-size:3.88055563px;font-family:sans-serif;-inkscape-font-specification:'sans-serif Bold';fill:#3f3f3f;fill-opacity:1;stroke-width:0.26458332"
         id="path924" />
      <path
         d="m 112.89607,146.34148 -0.0589,-0.0143 q -0.0388,-0.025 -0.13086,-0.0553 -0.0921,-0.0302 -0.1547,-0.0455 -0.14176,-0.0345 -0.25486,-0.0425 -0.11311,-0.008 -0.24905,0.006 l -0.33696,1.38448 -0.66278,-0.16131 0.50319,-2.06751 0.66279,0.16131 -0.0739,0.30377 q 0.26479,-0.13446 0.44159,-0.15579 0.17725,-0.0232 0.31349,0.01 0.035,0.009 0.0787,0.0211 0.0437,0.0126 0.076,0.0243 z"
         style="font-style:normal;font-variant:normal;font-weight:bold;font-stretch:normal;font-size:3.88055563px;font-family:sans-serif;-inkscape-font-specification:'sans-serif Bold';fill:#3f3f3f;fill-opacity:1;stroke-width:0.26458332"
         id="path926" />
      <path
         d="m 115.01464,147.69813 q -0.0138,0.29906 -0.10845,0.49954 -0.0946,0.20049 -0.25328,0.30886 -0.15874,0.11027 -0.37877,0.15131 -0.21823,0.043 -0.49079,0.0304 -0.22146,-0.0102 -0.43601,-0.0467 -0.21266,-0.0364 -0.36801,-0.0815 l 0.0246,-0.53188 0.0833,0.004 q 0.12265,0.055 0.30063,0.10305 0.17789,0.05 0.31984,0.0565 0.18928,0.009 0.3083,-0.0218 0.12082,-0.0286 0.18625,-0.09 0.0615,-0.0579 0.0923,-0.15128 0.0309,-0.0934 0.037,-0.2259 l 0.002,-0.0397 q -0.12767,0.0946 -0.27991,0.14639 -0.15224,0.0518 -0.33584,0.0433 -0.4467,-0.0206 -0.67655,-0.30063 -0.22985,-0.27997 -0.20448,-0.82888 0.0122,-0.26309 0.0948,-0.45085 0.0827,-0.18776 0.22361,-0.32351 0.13105,-0.12672 0.31616,-0.19214 0.18702,-0.0653 0.37819,-0.0565 0.17224,0.008 0.31038,0.0561 0.14012,0.0463 0.25226,0.12357 l 0.029,-0.0935 0.66058,0.0305 z m -0.66172,-0.45737 0.0445,-0.96343 q -0.0575,-0.0273 -0.1421,-0.0445 -0.0845,-0.0191 -0.15262,-0.0222 -0.26877,-0.0124 -0.41034,0.13657 -0.14147,0.1471 -0.15424,0.42345 -0.0142,0.30663 0.0938,0.43301 0.10986,0.12648 0.3351,0.13689 0.10221,0.005 0.20212,-0.0229 0.0999,-0.0276 0.18375,-0.0769 z"
         style="font-style:normal;font-variant:normal;font-weight:bold;font-stretch:normal;font-size:3.88055563px;font-family:sans-serif;-inkscape-font-specification:'sans-serif Bold';fill:#3f3f3f;fill-opacity:1;stroke-width:0.26458332"
         id="path928" />
      <path
         d="m 117.55532,146.60862 -1.53798,0.26895 q 0.058,0.24376 0.25258,0.34439 0.19643,0.1003 0.5324,0.0416 0.21277,-0.0372 0.39911,-0.14866 0.18633,-0.11145 0.28671,-0.21941 l 0.0747,-0.0131 0.0943,0.53942 q -0.21171,0.13127 -0.40611,0.20759 -0.1944,0.0763 -0.43891,0.11907 -0.63087,0.11032 -1.01645,-0.11464 -0.38558,-0.22495 -0.47729,-0.74943 -0.0907,-0.51888 0.17369,-0.87674 0.26596,-0.36005 0.82031,-0.45699 0.51141,-0.0894 0.81436,0.12497 0.30261,0.21253 0.38747,0.69782 z m -0.73707,-0.27698 q -0.0425,-0.20993 -0.16001,-0.29902 -0.11753,-0.0891 -0.32657,-0.0525 -0.19412,0.034 -0.30154,0.15661 -0.10743,0.12266 -0.0835,0.34738 z"
         style="font-style:normal;font-variant:normal;font-weight:bold;font-stretch:normal;font-size:3.88055563px;font-family:sans-serif;-inkscape-font-specification:'sans-serif Bold';fill:#3f3f3f;fill-opacity:1;stroke-width:0.26458332"
         id="path930" />
      <path
         d="m 120.158,146.56755 -0.63338,0.26329 -0.40511,-0.97456 q -0.0495,-0.11898 -0.11043,-0.23111 -0.0617,-0.11389 -0.11472,-0.15752 -0.0619,-0.0502 -0.14251,-0.0516 -0.0789,-0.002 -0.19957,0.0481 -0.0857,0.0356 -0.16333,0.10073 -0.0758,0.0644 -0.15362,0.16851 l 0.57893,1.39272 -0.62987,0.26183 -0.81677,-1.96486 0.62988,-0.26183 0.0902,0.21696 q 0.11342,-0.20105 0.2383,-0.33504 0.12663,-0.13472 0.31559,-0.21326 0.31844,-0.13237 0.574,-0.0211 0.25731,0.11055 0.41077,0.47973 z"
         style="font-style:normal;font-variant:normal;font-weight:bold;font-stretch:normal;font-size:3.88055563px;font-family:sans-serif;-inkscape-font-specification:'sans-serif Bold';fill:#3f3f3f;fill-opacity:1;stroke-width:0.26458332"
         id="path932" />
      <path
         d="m 121.64973,145.66139 q -0.22984,0.15735 -0.45805,0.23322 -0.22664,0.0748 -0.4455,0.057 -0.21729,-0.0189 -0.41271,-0.13997 -0.19543,-0.12109 -0.35492,-0.35405 -0.16805,-0.24547 -0.20878,-0.47937 -0.0392,-0.23497 0.0275,-0.45285 0.0663,-0.20842 0.21701,-0.38739 0.15074,-0.17897 0.35086,-0.31598 0.17981,-0.1231 0.35823,-0.18784 0.17841,-0.0647 0.35256,-0.0921 l 0.32862,0.48 -0.0797,0.0546 q -0.0521,-0.006 -0.1247,-0.0111 -0.071,-0.006 -0.16288,0.004 -0.0876,0.009 -0.17925,0.0401 -0.0927,0.029 -0.19429,0.0986 -0.22514,0.15414 -0.24862,0.38147 -0.023,0.2247 0.14507,0.47017 0.17341,0.25328 0.38684,0.30005 0.21499,0.0457 0.44326,-0.11057 0.10632,-0.0728 0.17469,-0.15404 0.0689,-0.0839 0.10267,-0.15526 0.0318,-0.0677 0.0489,-0.12989 0.0171,-0.0622 0.029,-0.11861 l 0.0797,-0.0546 0.32861,0.47999 q -0.0901,0.15353 -0.21087,0.28903 -0.11815,0.13601 -0.29326,0.25589 z"
         style="font-style:normal;font-variant:normal;font-weight:bold;font-stretch:normal;font-size:3.88055563px;font-family:sans-serif;-inkscape-font-specification:'sans-serif Bold';fill:#3f3f3f;fill-opacity:1;stroke-width:0.26458332"
         id="path934" />
      <path
         d="m 123.35358,142.75466 -1.0912,1.11669 q 0.18948,0.16396 0.40618,0.13198 0.21802,-0.0333 0.45639,-0.27727 0.15096,-0.15449 0.2371,-0.3538 0.0861,-0.1993 0.10454,-0.34556 l 0.053,-0.0542 0.39166,0.38271 q -0.0952,0.23023 -0.20837,0.40572 -0.1132,0.1755 -0.28668,0.35303 -0.4476,0.45806 -0.89196,0.50071 -0.44436,0.0427 -0.82518,-0.32947 -0.37675,-0.36814 -0.37116,-0.81306 0.006,-0.4476 0.39885,-0.85009 0.36285,-0.37133 0.73398,-0.37428 0.36976,-0.004 0.72212,0.34004 z m -0.76004,0.20574 q -0.15711,-0.14557 -0.30455,-0.14923 -0.14743,-0.004 -0.29575,0.14813 -0.13772,0.14094 -0.15327,0.30325 -0.0155,0.16231 0.13514,0.33074 z"
         style="font-style:normal;font-variant:normal;font-weight:bold;font-stretch:normal;font-size:3.88055563px;font-family:sans-serif;-inkscape-font-specification:'sans-serif Bold';fill:#3f3f3f;fill-opacity:1;stroke-width:0.26458332"
         id="path936" />
    </g>
  </g>
</svg>
